# This file uses meters as units for non-parametric coordinates.

mtllib Cup.mtl
g default
v 27.662617 2.238866 73.306706
v 25.382494 2.238866 71.650127
v 22.563964 2.238866 71.650127
v 20.283983 2.238866 73.306706
v 19.413082 2.238866 75.987119
v 20.283983 2.238866 78.667514
v 22.563964 2.238866 80.324099
v 25.382494 2.238866 80.324099
v 27.662617 2.238866 78.667514
v 28.533545 2.238866 75.987119
v 23.973292 -4.552053 75.987119
v 28.265311 3.889483 72.869032
v 25.612747 3.889483 70.941776
v 22.333790 3.889483 70.941776
v 19.681188 3.889483 72.869032
v 18.668001 3.889483 75.987383
v 19.681188 3.889483 79.105747
v 22.333790 3.889483 81.033008
v 25.612747 3.889483 81.033008
v 28.265318 3.889483 79.105747
v 29.278602 3.889483 75.987383
v 26.958771 -1.674179 73.817980
v 25.113667 -1.674179 72.477381
v 22.832896 -1.674179 72.477381
v 20.987792 -1.674179 73.817980
v 20.282915 -1.674179 75.987119
v 20.987792 -1.674179 78.156233
v 22.832896 -1.674179 79.496838
v 25.113667 -1.674179 79.496813
v 26.958771 -1.674179 78.156233
v 27.663671 -1.674179 75.987119
v 23.973289 -1.674179 75.987119
v 29.188544 19.911396 72.197964
v 29.445461 19.604878 72.021662
v 25.965295 19.911396 69.856112
v 26.063378 19.604878 69.564546
v 21.981252 19.911396 69.856112
v 21.883156 19.604878 69.564546
v 18.757994 19.911396 72.197970
v 18.501119 19.604878 72.021662
v 17.526716 19.911396 75.987119
v 17.209298 19.604878 75.997378
v 18.757994 19.911396 79.776250
v 18.501119 19.604878 79.973101
v 21.981252 19.911396 82.118089
v 21.883156 19.604878 82.430235
v 25.965295 19.911396 82.118089
v 26.063378 19.604878 82.430235
v 29.188544 19.911396 79.776250
v 29.445455 19.604878 79.973101
v 30.419818 19.911396 75.987119
v 30.737241 19.604878 75.997384
v 28.952574 12.122420 72.369691
v 25.875227 12.122414 70.133848
v 22.071315 12.122414 70.133848
v 18.994007 12.122426 72.369691
v 17.818429 12.122426 75.987383
v 18.994007 12.122429 79.605074
v 22.071315 12.122417 81.840937
v 25.875227 12.122420 81.840937
v 28.952558 12.122420 79.605074
v 30.128102 12.122417 75.987402
v 27.347105 -4.552053 73.535921
v 27.750200 -4.112697 73.243076
v 28.143482 -4.552053 75.987119
v 28.641727 -4.112706 75.987126
v 25.262051 -4.552053 72.021015
v 25.416019 -4.112694 71.547169
v 22.684543 -4.552053 72.021015
v 22.530574 -4.112694 71.547169
v 20.599432 -4.552053 73.535940
v 20.196340 -4.112695 73.243076
v 19.802988 -4.552053 75.987119
v 19.304741 -4.112697 75.987126
v 20.599426 -4.552053 78.438299
v 20.196340 -4.112703 78.731175
v 22.684538 -4.552053 79.953211
v 22.530575 -4.112708 80.427083
v 25.262051 -4.552053 79.953230
v 25.416012 -4.112709 80.427083
v 27.347105 -4.552053 78.438311
v 27.750194 -4.112707 78.731175
vt 0.626409 0.751908
vt 0.548284 0.695147
vt 0.451716 0.695147
vt 0.373591 0.751909
vt 0.343750 0.843750
vt 0.373591 0.935591
vt 0.451716 0.992353
vt 0.548284 0.992353
vt 0.626409 0.935591
vt 0.656250 0.843750
vt 0.563204 0.889671
vt 0.524142 0.918051
vt 0.475858 0.918051
vt 0.436796 0.889671
vt 0.421875 0.843750
vt 0.436796 0.797829
vt 0.475858 0.769449
vt 0.524142 0.769449
vt 0.563205 0.797829
vt 0.578125 0.843750
vt 0.500000 0.843750
vt 0.387500 0.673594
vt 0.412500 0.673594
vt 0.437500 0.673594
vt 0.462500 0.673594
vt 0.487500 0.673594
vt 0.512500 0.673594
vt 0.537500 0.673594
vt 0.562500 0.673594
vt 0.587500 0.673594
vt 0.612500 0.673594
vt 0.387500 0.687500
vt 0.387500 0.687500
vt 0.412500 0.687500
vt 0.412500 0.687500
vt 0.437500 0.687500
vt 0.437500 0.687500
vt 0.462500 0.687500
vt 0.462500 0.687500
vt 0.487500 0.687500
vt 0.487500 0.687500
vt 0.512500 0.687500
vt 0.512500 0.687500
vt 0.537500 0.687500
vt 0.537500 0.687500
vt 0.562500 0.687500
vt 0.562500 0.687500
vt 0.587500 0.687500
vt 0.587500 0.687500
vt 0.612500 0.687500
vt 0.612500 0.687500
vt 0.387500 0.583566
vt 0.412500 0.583566
vt 0.437500 0.583566
vt 0.462500 0.583566
vt 0.487500 0.583566
vt 0.512500 0.583566
vt 0.537500 0.583566
vt 0.562500 0.583566
vt 0.587500 0.583566
vt 0.612500 0.583566
vt 0.626409 0.064409
vt 0.548284 0.007647
vt 0.656250 0.156251
vt 0.451716 0.007647
vt 0.373591 0.064409
vt 0.343750 0.156250
vt 0.373591 0.248091
vt 0.451716 0.304853
vt 0.548284 0.304853
vt 0.626408 0.248092
vt 0.613770 0.073591
vt 0.543456 0.022506
vt 0.456544 0.022506
vt 0.386230 0.073592
vt 0.359373 0.156250
vt 0.386230 0.238909
vt 0.456543 0.289994
vt 0.543457 0.289995
vt 0.613770 0.238909
vt 0.500000 0.156250
vt 0.640627 0.156250
vt 0.387500 0.312500
vt 0.412500 0.312500
vt 0.412500 0.312500
vt 0.437500 0.312500
vt 0.437500 0.312500
vt 0.462500 0.312500
vt 0.462500 0.312500
vt 0.487500 0.312500
vt 0.487500 0.312500
vt 0.512500 0.312500
vt 0.512500 0.312500
vt 0.537500 0.312500
vt 0.537500 0.312500
vt 0.562500 0.312500
vt 0.562500 0.312500
vt 0.587500 0.312500
vt 0.587500 0.312500
vt 0.612500 0.312500
vt 0.612500 0.312500
vt 0.387500 0.312500
vn 0.000000 1.000000 -0.000000
vn 0.877719 0.479176 -0.000000
vn 0.710087 0.479187 -0.515903
vn -0.877715 0.479182 -0.000000
vn -0.992604 0.121394 0.000000
vn -0.803030 0.121393 0.583443
vn -0.710080 0.479187 0.515914
vn -0.306731 0.121395 0.944023
vn -0.271226 0.479169 0.834766
vn 0.306736 0.121395 0.944021
vn 0.271225 0.479174 0.834763
vn 0.803036 0.121394 0.583435
vn 0.710088 0.479187 0.515902
vn 0.992604 0.121396 -0.000000
vn 0.803035 0.121394 -0.583437
vn 0.306735 0.121394 -0.944022
vn 0.271224 0.479174 -0.834763
vn -0.306731 0.121394 -0.944023
vn -0.271227 0.479171 -0.834764
vn -0.803029 0.121393 -0.583446
vn -0.710078 0.479186 -0.515917
vn 0.217243 0.708385 -0.671562
vn 0.566125 0.712663 -0.414263
vn 0.569318 0.712736 -0.409737
vn 0.219266 0.708396 -0.670893
vn 0.694505 0.719478 0.003802
vn 0.694619 0.719373 -0.002853
vn -0.217242 0.708381 -0.671567
vn -0.219272 0.708392 -0.670895
vn -0.566145 0.712645 -0.414268
vn -0.569327 0.712717 -0.409758
vn -0.694645 0.719348 -0.002851
vn -0.694531 0.719453 0.003800
vn -0.557792 0.725860 0.402488
vn -0.554642 0.725925 0.406699
vn -0.212078 0.729787 0.649949
vn -0.210183 0.729796 0.650554
vn 0.212080 0.729789 0.649945
vn 0.210178 0.729799 0.650553
vn 0.557775 0.725875 0.402483
vn 0.554634 0.725940 0.406684
vn 0.995742 -0.092181 0.000003
vn 0.805576 -0.092171 -0.585280
vn 0.805580 -0.091182 -0.585428
vn 0.995797 -0.091583 -0.000131
vn 0.307699 -0.092167 -0.947009
vn 0.307696 -0.090934 -0.947129
vn -0.307699 -0.092167 -0.947009
vn -0.307697 -0.090934 -0.947129
vn -0.805576 -0.092170 -0.585279
vn -0.805580 -0.091181 -0.585428
vn -0.995743 -0.092178 0.000003
vn -0.995797 -0.091583 -0.000132
vn -0.805573 -0.092187 0.585281
vn -0.805648 -0.091978 0.585210
vn -0.307698 -0.092195 0.947007
vn -0.307740 -0.092224 0.946990
vn 0.307698 -0.092195 0.947007
vn 0.307740 -0.092224 0.946990
vn 0.805572 -0.092188 0.585282
vn 0.805647 -0.091979 0.585212
vn -0.804443 0.106129 0.584472
vn -0.994352 0.106130 0.000000
vn -0.307270 0.106133 0.945685
vn 0.307272 0.106133 0.945685
vn 0.804449 0.106131 0.584464
vn 0.994352 0.106134 0.000000
vn 0.804447 0.106131 -0.584466
vn 0.307271 0.106132 -0.945685
vn -0.307269 0.106132 -0.945686
vn -0.804442 0.106129 -0.584474
vn 0.806523 -0.080365 -0.585716
vn 0.996702 -0.081147 0.000267
vn 0.806168 -0.081920 0.585988
vn 0.307887 -0.082396 0.947848
vn -0.307888 -0.082396 0.947848
vn -0.806168 -0.081920 0.585988
vn -0.996702 -0.081146 0.000265
vn -0.806522 -0.080364 -0.585717
vn -0.308105 -0.079879 -0.947993
vn 0.308103 -0.079879 -0.947994
vn 0.535082 -0.750041 -0.388750
vn 0.535084 -0.750041 -0.388747
vn 0.661387 -0.750045 -0.000000
vn 0.661387 -0.750045 -0.000003
vn 0.204377 -0.750032 -0.629032
vn 0.204379 -0.750032 -0.629032
vn 0.535076 -0.750048 0.388744
vn 0.535079 -0.750048 0.388741
vn -0.204375 -0.750034 -0.629031
vn -0.204378 -0.750034 -0.629030
vn -0.535077 -0.750039 -0.388759
vn -0.535077 -0.750039 -0.388759
vn -0.661389 -0.750043 -0.000003
vn -0.661389 -0.750043 -0.000001
vn -0.535071 -0.750050 0.388748
vn -0.535067 -0.750050 0.388752
vn -0.204373 -0.750053 0.629009
vn -0.204370 -0.750053 0.629010
vn 0.204373 -0.750049 0.629013
vn 0.204371 -0.750049 0.629014
vn 0.000000 -1.000000 0.000000
vn 0.000000 -1.000000 0.000000
vn 0.000000 -1.000000 0.000000
vn 0.000000 -1.000000 0.000000
vn 0.000000 -1.000000 0.000000
vn 0.000000 -1.000000 0.000000
vn 0.000000 -1.000000 0.000000
vn 0.000000 -1.000000 -0.000000
vn 0.000000 -1.000000 -0.000000
vn 0.000000 -1.000000 -0.000000
vn 0.000000 -1.000000 0.000000
vn 0.586119 -0.075438 -0.806706
vn 0.586119 -0.075438 -0.806706
vn 0.000000 -0.075438 -0.997150
vn 0.000000 -0.075438 -0.997150
vn -0.586112 -0.075442 -0.806710
vn -0.586112 -0.075442 -0.806710
vn -0.948347 -0.075453 -0.308133
vn -0.948347 -0.075453 -0.308133
vn -0.948345 -0.075472 0.308131
vn -0.948345 -0.075472 0.308131
vn -0.586110 -0.075495 0.806707
vn -0.586110 -0.075495 0.806707
vn 0.000000 -0.075504 0.997145
vn 0.000000 -0.075504 0.997145
vn 0.586116 -0.075492 0.806702
vn 0.586116 -0.075492 0.806702
vn 0.948343 -0.075479 0.308136
vn 0.948343 -0.075479 0.308136
vn 0.948345 -0.075458 -0.308137
vn 0.948345 -0.075458 -0.308137
s 1
g pCylinder2
usemtl initialShadingGroup
f 32/21/1 26/15/2 27/16/3
f 31/20/4 10/10/5 1/9/6 22/11/7
f 22/11/7 1/9/6 2/8/8 23/12/9
f 23/12/9 2/8/8 3/7/10 24/13/11
f 24/13/11 3/7/10 4/6/12 25/14/13
f 25/14/13 4/6/12 5/5/14 26/15/2
f 26/15/2 5/5/14 6/4/15 27/16/3
f 27/16/3 6/4/15 7/3/16 28/17/17
f 28/17/17 7/3/16 8/2/18 29/18/19
f 29/18/19 8/2/18 9/1/20 30/19/21
f 30/19/21 9/1/20 10/10/5 31/20/4
f 32/21/1 31/20/4 22/11/7
f 32/21/1 22/11/7 23/12/9
f 32/21/1 23/12/9 24/13/11
f 32/21/1 24/13/11 25/14/13
f 32/21/1 25/14/13 26/15/2
f 32/21/1 27/16/3 28/17/17
f 32/21/1 28/17/17 29/18/19
f 32/21/1 29/18/19 30/19/21
f 32/21/1 30/19/21 31/20/4
s 3
f 35/34/22 33/32/23 34/22/24 36/23/25
f 52/31/26 34/22/24 33/32/23 51/50/27
f 37/36/28 35/34/22 36/23/25 38/24/29
f 39/38/30 37/36/28 38/24/29 40/25/31
f 41/40/32 39/38/30 40/25/31 42/26/33
f 43/42/34 41/40/32 42/26/33 44/27/35
f 45/44/36 43/42/34 44/27/35 46/28/37
f 47/46/38 45/44/36 46/28/37 48/29/39
f 49/48/40 47/46/38 48/29/39 50/30/41
f 51/50/27 49/48/40 50/30/41 52/31/26
s 4
f 21/101/42 12/83/43 53/52/44 62/61/45
f 53/52/44 12/83/43 13/85/46 54/53/47
f 54/53/47 13/85/46 14/87/48 55/54/49
f 55/54/49 14/87/48 15/89/50 56/55/51
f 56/55/51 15/89/50 16/91/52 57/56/53
f 57/56/53 16/91/52 17/93/54 58/57/55
f 58/57/55 17/93/54 18/95/56 59/58/57
f 59/58/57 18/95/56 19/97/58 60/59/59
f 60/59/59 19/97/58 20/99/60 61/60/61
f 61/60/61 20/99/60 21/101/42 62/61/45
s 1
f 33/32/62 1/33/6 10/51/5 51/50/63
f 2/35/8 1/33/6 33/32/62 35/34/64
f 3/37/10 2/35/8 35/34/64 37/36/65
f 4/39/12 3/37/10 37/36/65 39/38/66
f 5/41/14 4/39/12 39/38/66 41/40/67
f 6/43/15 5/41/14 41/40/67 43/42/68
f 7/45/16 6/43/15 43/42/68 45/44/69
f 8/47/18 7/45/16 45/44/69 47/46/70
f 9/49/20 8/47/18 47/46/70 49/48/71
f 10/51/5 9/49/20 49/48/71 51/50/63
s 4
f 53/52/44 34/22/72 52/31/73 62/61/45
f 50/30/74 61/60/61 62/61/45 52/31/73
f 48/29/75 60/59/59 61/60/61 50/30/74
f 46/28/76 59/58/57 60/59/59 48/29/75
f 44/27/77 58/57/55 59/58/57 46/28/76
f 42/26/78 57/56/53 58/57/55 44/27/77
f 40/25/79 56/55/51 57/56/53 42/26/78
f 38/24/80 55/54/49 56/55/51 40/25/79
f 36/23/81 54/53/47 55/54/49 38/24/80
f 34/22/72 53/52/44 54/53/47 36/23/81
s 5
f 63/72/82 64/62/83 66/64/84 65/82/85
f 64/62/83 63/72/82 67/73/86 68/63/87
f 65/82/85 66/64/84 82/71/88 81/80/89
f 68/63/87 67/73/86 69/74/90 70/65/91
f 70/65/91 69/74/90 71/75/92 72/66/93
f 72/66/93 71/75/92 73/76/94 74/67/95
f 74/67/95 73/76/94 75/77/96 76/68/97
f 76/68/97 75/77/96 77/78/98 78/69/99
f 78/69/99 77/78/98 79/79/100 80/70/101
f 80/70/101 79/79/100 81/80/89 82/71/88
s 6
f 63/72/102 11/81/103 67/73/104
f 67/73/104 11/81/103 69/74/105
f 69/74/105 11/81/103 71/75/106
f 71/75/106 11/81/103 73/76/107
f 73/76/107 11/81/103 75/77/108
f 75/77/108 11/81/103 77/78/109
f 77/78/109 11/81/103 79/79/110
f 79/79/110 11/81/103 81/80/111
f 81/80/111 11/81/103 65/82/112
f 65/82/112 11/81/103 63/72/102
s 4
f 12/83/43 64/102/113 68/84/114 13/85/46
f 13/85/46 68/84/115 70/86/116 14/87/48
f 14/87/48 70/86/117 72/88/118 15/89/50
f 15/89/50 72/88/119 74/90/120 16/91/52
f 16/91/52 74/90/121 76/92/122 17/93/54
f 17/93/54 76/92/123 78/94/124 18/95/56
f 18/95/56 78/94/125 80/96/126 19/97/58
f 19/97/58 80/96/127 82/98/128 20/99/60
f 20/99/60 82/98/129 66/100/130 21/101/42
f 21/101/42 66/100/131 64/102/132 12/83/43
