# This file uses meters as units for non-parametric coordinates.

mtllib Small Plate.mtl
g default
v -8.591504 -1.573396 -2.615996
v -9.793934 -1.573396 -4.975917
v -11.666794 -1.573396 -6.848755
v -14.026708 -1.573396 -8.051197
v -16.642715 -1.573396 -8.465529
v -19.258720 -1.573396 -8.051196
v -21.618629 -1.573396 -6.848754
v -23.491464 -1.573396 -4.975916
v -24.693910 -1.573396 -2.615995
v -25.108254 -1.573396 0.000002
v -24.693910 -1.573396 2.615996
v -23.491464 -1.573396 4.975918
v -21.618624 -1.573396 6.848755
v -19.258720 -1.573396 8.051195
v -16.642715 -1.573396 8.465529
v -14.026711 -1.573396 8.051194
v -11.666801 -1.573396 6.848754
v -9.793942 -1.573396 4.975917
v -8.591504 -1.573396 2.615996
v -8.177187 -1.573396 0.000002
v -6.647352 0.896291 -3.247694
v -8.140119 0.896291 -6.177480
v -10.465259 0.896291 -8.502574
v -13.395005 0.896291 -9.995376
v -16.642715 0.896291 -10.509752
v -19.890420 0.896291 -9.995376
v -22.820212 0.896291 -8.502573
v -25.145298 0.896291 -6.177479
v -26.638094 0.896291 -3.247694
v -27.152476 0.896291 0.000002
v -26.638094 0.896291 3.247695
v -25.145298 0.896291 6.177480
v -22.820206 0.896291 8.502572
v -19.890420 0.896291 9.995376
v -16.642715 0.896291 10.509750
v -13.395005 0.896291 9.995376
v -10.465263 0.896291 8.502571
v -8.140125 0.896291 6.177479
v -6.647352 0.896291 3.247695
v -6.132978 0.896291 0.000002
v -16.642715 -1.573396 0.000002
v -4.482719 0.449950 -3.951022
v -6.298780 0.449950 -7.515293
v -9.127407 0.449950 -10.343913
v -12.691703 0.449950 -12.159995
v -16.642718 0.449950 -12.785786
v -20.593731 0.449950 -12.159995
v -24.158019 0.449950 -10.343906
v -26.986623 0.449950 -7.515292
v -28.802708 0.449950 -3.951023
v -29.428489 0.449950 0.000002
v -28.802708 0.449950 3.951025
v -26.986623 0.449950 7.515295
v -24.158011 0.449950 10.343913
v -20.593731 0.449950 12.159995
v -16.642712 0.449950 12.785786
v -12.691703 0.449950 12.159995
v -9.127412 0.449950 10.343911
v -6.298793 0.449950 7.515292
v -4.482742 0.449950 3.951027
v -3.856957 0.449950 0.000006
v -10.040020 -1.028638 -2.145350
v -11.026112 -1.028638 -4.080704
v -12.562016 -1.028638 -5.616604
v -14.497373 -1.028638 -6.602710
v -16.642715 -1.028638 -6.942501
v -18.788069 -1.028638 -6.602710
v -20.723411 -1.028638 -5.616602
v -22.259315 -1.028638 -4.080702
v -23.245447 -1.028638 -2.145349
v -23.585210 -1.028638 0.000002
v -23.245447 -1.028638 2.145353
v -22.259315 -1.028638 4.080705
v -20.723411 -1.028638 5.616603
v -18.788069 -1.028638 6.602712
v -16.642715 -1.028638 6.942501
v -14.497376 -1.028638 6.602710
v -12.562016 -1.028638 5.616603
v -11.026112 -1.028638 4.080704
v -10.040033 -1.028638 2.145352
v -9.700206 -1.028638 0.000002
v -16.642718 -1.028638 0.000001
v -6.828401 1.573396 -7.130505
v -6.298780 1.150090 -7.515293
v -5.105333 1.573396 -3.748726
v -4.482719 1.150090 -3.951022
v -9.512212 1.573396 -9.814296
v -9.127407 1.150090 -10.343913
v -12.894009 1.573396 -11.537402
v -12.691703 1.150090 -12.159995
v -16.642718 1.573396 -12.131137
v -16.642718 1.150090 -12.785786
v -20.391447 1.573396 -11.537400
v -20.593731 1.150090 -12.159995
v -23.773217 1.573396 -9.814295
v -24.158019 1.150090 -10.343906
v -26.457006 1.573396 -7.130502
v -26.986623 1.150090 -7.515292
v -28.180104 1.573396 -3.748726
v -28.802708 1.150090 -3.951023
v -28.773840 1.573396 0.000002
v -29.428489 1.150090 0.000002
v -28.180104 1.573396 3.748728
v -28.802708 1.150090 3.951025
v -26.457006 1.573396 7.130509
v -26.986623 1.150090 7.515295
v -23.773214 1.573396 9.814296
v -24.158011 1.150090 10.343913
v -20.391447 1.573396 11.537400
v -20.593731 1.150090 12.159995
v -16.642712 1.573396 12.131137
v -16.642712 1.150090 12.785786
v -12.894009 1.573396 11.537400
v -12.691703 1.150090 12.159995
v -9.512212 1.573396 9.814296
v -9.127412 1.150090 10.343911
v -6.828409 1.573396 7.130505
v -6.298793 1.150090 7.515292
v -5.105333 1.573396 3.748730
v -4.482742 1.150090 3.951027
v -4.511575 1.573396 0.000005
v -3.856957 1.150090 0.000006
v -7.381317 -1.184728 -3.009210
v -6.904700 -1.184728 0.000003
v -7.381317 -1.184728 3.009209
v -8.764474 -1.184728 5.723858
v -10.918850 -1.184728 7.878209
v -13.633501 -1.184728 9.261395
v -16.642713 -1.184728 9.738009
v -19.651923 -1.184728 9.261395
v -22.366575 -1.184728 7.878211
v -24.520938 -1.184728 5.723862
v -25.904116 -1.184728 3.009209
v -26.380730 -1.184728 0.000002
v -25.904116 -1.184728 -3.009210
v -24.520938 -1.184728 -5.723858
v -22.366575 -1.184728 -7.878208
v -19.651923 -1.184728 -9.261393
v -16.642716 -1.184728 -9.738000
v -13.633499 -1.184728 -9.261393
v -10.918850 -1.184728 -7.878211
v -8.764473 -1.184728 -5.723860
vt 0.648603 0.107966
vt 0.626409 0.064408
vt 0.591842 0.029841
vt 0.548284 0.007647
vt 0.500000 -0.000000
vt 0.451716 0.007647
vt 0.408159 0.029841
vt 0.373591 0.064409
vt 0.351397 0.107966
vt 0.343750 0.156250
vt 0.351397 0.204534
vt 0.373591 0.248091
vt 0.408159 0.282659
vt 0.451716 0.304853
vt 0.500000 0.312500
vt 0.548284 0.304853
vt 0.591841 0.282659
vt 0.626409 0.248091
vt 0.648603 0.204534
vt 0.656250 0.156250
vt 0.375000 0.312500
vt 0.387500 0.312500
vt 0.400000 0.312500
vt 0.412500 0.312500
vt 0.425000 0.312500
vt 0.437500 0.312500
vt 0.450000 0.312500
vt 0.462500 0.312500
vt 0.475000 0.312500
vt 0.487500 0.312500
vt 0.500000 0.312500
vt 0.512500 0.312500
vt 0.525000 0.312500
vt 0.537500 0.312500
vt 0.550000 0.312500
vt 0.562500 0.312500
vt 0.575000 0.312500
vt 0.587500 0.312500
vt 0.600000 0.312500
vt 0.612500 0.312500
vt 0.625000 0.312500
vt 0.648603 0.795466
vt 0.626409 0.751908
vt 0.591842 0.717341
vt 0.548284 0.695147
vt 0.500000 0.687500
vt 0.451716 0.695147
vt 0.408159 0.717341
vt 0.373591 0.751909
vt 0.351397 0.795466
vt 0.343750 0.843750
vt 0.351397 0.892034
vt 0.373591 0.935591
vt 0.408159 0.970159
vt 0.451716 0.992353
vt 0.500000 1.000000
vt 0.548284 0.992353
vt 0.591841 0.970159
vt 0.626409 0.935591
vt 0.648603 0.892034
vt 0.656250 0.843750
vt 0.500000 0.156250
vt 0.375000 0.312500
vt 0.574301 0.867892
vt 0.563204 0.889671
vt 0.545921 0.906954
vt 0.524142 0.918051
vt 0.500000 0.921875
vt 0.475858 0.918051
vt 0.454079 0.906954
vt 0.436796 0.889671
vt 0.425699 0.867892
vt 0.421875 0.843750
vt 0.425699 0.819608
vt 0.436796 0.797829
vt 0.454079 0.780546
vt 0.475858 0.769449
vt 0.500000 0.765625
vt 0.524142 0.769449
vt 0.545921 0.780545
vt 0.563205 0.797829
vt 0.574301 0.819608
vt 0.578125 0.843750
vt 0.500000 0.843750
vt 0.375000 0.687500
vt 0.625000 0.673594
vt 0.387500 0.312500
vt 0.375000 0.673594
vt 0.400000 0.312500
vt 0.387500 0.673594
vt 0.412500 0.312500
vt 0.400000 0.673594
vt 0.425000 0.312500
vt 0.412500 0.673594
vt 0.437500 0.312500
vt 0.425000 0.673594
vt 0.450000 0.312500
vt 0.437500 0.673594
vt 0.462500 0.312500
vt 0.450000 0.673594
vt 0.475000 0.312500
vt 0.462500 0.673594
vt 0.487500 0.312500
vt 0.475000 0.673594
vt 0.500000 0.312500
vt 0.487500 0.673594
vt 0.512500 0.312500
vt 0.500000 0.673594
vt 0.525000 0.312500
vt 0.512500 0.673594
vt 0.537500 0.312500
vt 0.525000 0.673594
vt 0.550000 0.312500
vt 0.537500 0.673594
vt 0.562500 0.312500
vt 0.550000 0.673594
vt 0.575000 0.312500
vt 0.562500 0.673594
vt 0.587500 0.312500
vt 0.575000 0.673594
vt 0.600000 0.312500
vt 0.587500 0.673594
vt 0.612500 0.312500
vt 0.600000 0.673594
vt 0.625000 0.312500
vt 0.612500 0.673594
vt 0.375000 0.687500
vt 0.387500 0.687500
vt 0.387500 0.687500
vt 0.400000 0.687500
vt 0.400000 0.687500
vt 0.412500 0.687500
vt 0.412500 0.687500
vt 0.425000 0.687500
vt 0.425000 0.687500
vt 0.437500 0.687500
vt 0.437500 0.687500
vt 0.450000 0.687500
vt 0.450000 0.687500
vt 0.462500 0.687500
vt 0.462500 0.687500
vt 0.475000 0.687500
vt 0.475000 0.687500
vt 0.487500 0.687500
vt 0.487500 0.687500
vt 0.500000 0.687500
vt 0.500000 0.687500
vt 0.512500 0.687500
vt 0.512500 0.687500
vt 0.525000 0.687500
vt 0.525000 0.687500
vt 0.537500 0.687500
vt 0.537500 0.687500
vt 0.550000 0.687500
vt 0.550000 0.687500
vt 0.562500 0.687500
vt 0.562500 0.687500
vt 0.575000 0.687500
vt 0.575000 0.687500
vt 0.587500 0.687500
vt 0.587500 0.687500
vt 0.600000 0.687500
vt 0.600000 0.687500
vt 0.612500 0.687500
vt 0.625000 0.687500
vt 0.612500 0.687500
vt 0.625000 0.687500
vt 0.625000 0.312500
vt 0.375000 0.312500
vt 0.612500 0.312500
vt 0.600000 0.312500
vt 0.587500 0.312500
vt 0.575000 0.312500
vt 0.562500 0.312500
vt 0.550000 0.312500
vt 0.537500 0.312500
vt 0.525000 0.312500
vt 0.512500 0.312500
vt 0.500000 0.312500
vt 0.487500 0.312500
vt 0.475000 0.312500
vt 0.462500 0.312500
vt 0.450000 0.312500
vt 0.437500 0.312500
vt 0.425000 0.312500
vt 0.412500 0.312500
vt 0.400000 0.312500
vt 0.387500 0.312500
vn 0.069517 -0.996301 -0.050507
vn 0.081722 -0.996301 -0.026553
vn 0.000000 -1.000000 0.000000
vn 0.050506 -0.996301 -0.069517
vn 0.026553 -0.996301 -0.081722
vn -0.000000 -0.996301 -0.085927
vn -0.026553 -0.996301 -0.081722
vn -0.050507 -0.996301 -0.069517
vn -0.069516 -0.996301 -0.050507
vn -0.081721 -0.996301 -0.026553
vn -0.085927 -0.996301 -0.000000
vn -0.081721 -0.996301 0.026553
vn -0.069516 -0.996301 0.050507
vn -0.050507 -0.996301 0.069517
vn -0.026553 -0.996301 0.081722
vn 0.000000 -0.996301 0.085927
vn 0.026553 -0.996301 0.081722
vn 0.050506 -0.996301 0.069517
vn 0.069517 -0.996301 0.050507
vn 0.081722 -0.996301 0.026553
vn 0.085927 -0.996301 -0.000000
vn 0.297176 0.949928 -0.096558
vn 0.000000 1.000000 0.000000
vn 0.312467 0.949929 0.000000
vn 0.353498 -0.899487 -0.256831
vn 0.415563 -0.899487 -0.135022
vn 0.256830 -0.899487 -0.353498
vn 0.135024 -0.899487 -0.415562
vn -0.000000 -0.899487 -0.436947
vn -0.135024 -0.899487 -0.415561
vn -0.256831 -0.899487 -0.353498
vn -0.353498 -0.899487 -0.256831
vn -0.415562 -0.899487 -0.135024
vn -0.436948 -0.899487 -0.000000
vn -0.415562 -0.899487 0.135024
vn -0.353498 -0.899487 0.256831
vn -0.256831 -0.899487 0.353498
vn -0.135024 -0.899487 0.415561
vn -0.000000 -0.899487 0.436947
vn 0.135025 -0.899487 0.415561
vn 0.256830 -0.899487 0.353498
vn 0.353499 -0.899487 0.256831
vn 0.415564 -0.899486 0.135023
vn 0.436949 -0.899486 0.000001
vn -0.439376 0.898303 -0.000000
vn -0.417872 0.898303 0.135773
vn -0.297174 0.949929 0.096557
vn -0.312470 0.949928 -0.000000
vn -0.355462 0.898304 0.258258
vn -0.252793 0.949928 0.183664
vn -0.258258 0.898303 0.355464
vn -0.183664 0.949928 0.252793
vn -0.135775 0.898303 0.417871
vn -0.096558 0.949928 0.297175
vn 0.000000 0.898303 0.439376
vn 0.000000 0.949928 0.312469
vn 0.135775 0.898303 0.417872
vn 0.096558 0.949928 0.297175
vn 0.258260 0.898303 0.355463
vn 0.183664 0.949928 0.252792
vn 0.355464 0.898303 0.258260
vn 0.252791 0.949928 0.183664
vn 0.417873 0.898302 0.135775
vn 0.297176 0.949928 0.096558
vn 0.439378 0.898302 0.000000
vn 0.417873 0.898302 -0.135775
vn 0.355464 0.898303 -0.258260
vn 0.252791 0.949928 -0.183664
vn 0.258259 0.898303 -0.355463
vn 0.183664 0.949928 -0.252792
vn 0.135775 0.898303 -0.417872
vn 0.096558 0.949928 -0.297175
vn -0.000000 0.898303 -0.439376
vn -0.000000 0.949928 -0.312469
vn -0.135775 0.898303 -0.417871
vn -0.096558 0.949928 -0.297175
vn -0.258258 0.898303 -0.355464
vn -0.183664 0.949928 -0.252793
vn -0.355462 0.898304 -0.258258
vn -0.252793 0.949928 -0.183665
vn -0.417872 0.898303 -0.135774
vn -0.297174 0.949929 -0.096557
vn 0.439287 0.839740 -0.319160
vn 0.439288 0.839740 -0.319160
vn 0.319161 0.839739 -0.439289
vn 0.319160 0.839739 -0.439290
vn 0.516417 0.839738 -0.167792
vn 0.516417 0.839738 -0.167792
vn 0.543000 0.839733 0.000001
vn 0.543000 0.839733 0.000001
vn 0.167795 0.839738 -0.516416
vn 0.167793 0.839738 -0.516417
vn -0.000000 0.839737 -0.542993
vn -0.000000 0.839737 -0.542993
vn -0.167795 0.839736 -0.516419
vn -0.167796 0.839736 -0.516419
vn -0.319165 0.839737 -0.439290
vn -0.319163 0.839737 -0.439291
vn -0.439290 0.839738 -0.319162
vn -0.439290 0.839738 -0.319162
vn -0.516415 0.839739 -0.167793
vn -0.516415 0.839739 -0.167793
vn -0.542990 0.839740 -0.000000
vn -0.542990 0.839740 -0.000000
vn -0.516415 0.839739 0.167793
vn -0.516415 0.839739 0.167793
vn -0.439290 0.839738 0.319162
vn -0.439290 0.839738 0.319162
vn -0.319164 0.839737 0.439291
vn -0.319163 0.839737 0.439291
vn -0.167794 0.839737 0.516418
vn -0.167795 0.839736 0.516418
vn -0.000000 0.839737 0.542993
vn 0.000000 0.839737 0.542993
vn 0.167795 0.839738 0.516416
vn 0.167793 0.839738 0.516417
vn 0.319162 0.839738 0.439290
vn 0.319161 0.839738 0.439291
vn 0.439291 0.839737 0.319162
vn 0.439292 0.839737 0.319162
vn 0.516424 0.839733 0.167795
vn 0.516424 0.839733 0.167795
vn 0.951058 0.000000 -0.309012
vn 0.809018 0.000000 -0.587784
vn 0.809018 0.000000 -0.587784
vn 0.951058 0.000000 -0.309012
vn 0.587783 0.000000 -0.809019
vn 0.587783 0.000000 -0.809019
vn 0.309017 0.000000 -0.951056
vn 0.309017 0.000000 -0.951056
vn -0.000000 0.000000 -1.000000
vn -0.000000 0.000000 -1.000000
vn -0.309018 0.000000 -0.951056
vn -0.309018 0.000000 -0.951056
vn -0.587785 0.000000 -0.809017
vn -0.587785 0.000000 -0.809017
vn -0.809018 0.000000 -0.587784
vn -0.809018 0.000000 -0.587784
vn -0.951057 0.000000 -0.309017
vn -0.951057 0.000000 -0.309017
vn -1.000000 0.000000 0.000000
vn -1.000000 0.000000 0.000000
vn -0.951057 0.000000 0.309017
vn -0.951057 0.000000 0.309017
vn -0.809018 0.000000 0.587785
vn -0.809018 0.000000 0.587785
vn -0.587785 0.000000 0.809017
vn -0.587785 0.000000 0.809017
vn -0.309017 0.000000 0.951056
vn -0.309017 0.000000 0.951056
vn 0.000000 0.000000 1.000000
vn 0.000000 0.000000 1.000000
vn 0.309018 0.000000 0.951056
vn 0.309018 0.000000 0.951056
vn 0.587784 0.000000 0.809018
vn 0.587784 0.000000 0.809018
vn 0.809019 0.000000 0.587783
vn 0.809019 0.000000 0.587783
vn 0.951058 0.000000 0.309014
vn 0.951058 0.000000 0.309014
vn 1.000000 0.000000 0.000003
vn 1.000000 0.000000 0.000003
vn -0.366497 0.922768 0.119080
vn -0.311760 0.922768 0.226507
vn -0.226507 0.922768 0.311760
vn -0.119081 0.922768 0.366497
vn 0.000000 0.922768 0.385357
vn 0.119082 0.922767 0.366497
vn 0.226508 0.922767 0.311762
vn 0.311763 0.922766 0.226509
vn 0.366499 0.922766 0.119082
vn 0.385360 0.922766 0.000000
vn 0.366499 0.922766 -0.119083
vn 0.311762 0.922767 -0.226509
vn 0.226508 0.922767 -0.311762
vn 0.119082 0.922767 -0.366497
vn -0.000000 0.922768 -0.385357
vn -0.119081 0.922767 -0.366497
vn -0.226507 0.922768 -0.311760
vn -0.311760 0.922768 -0.226507
vn -0.366497 0.922768 -0.119081
vn -0.385355 0.922768 -0.000000
vn 0.449527 -0.881245 -0.146058
vn 0.472661 -0.881244 0.000001
vn 0.449528 -0.881244 0.146059
vn 0.382390 -0.881245 0.277822
vn 0.277821 -0.881246 0.382389
vn 0.146060 -0.881246 0.449525
vn 0.000000 -0.881246 0.472658
vn -0.146060 -0.881246 0.449525
vn -0.277821 -0.881246 0.382389
vn -0.382389 -0.881246 0.277822
vn -0.449526 -0.881245 0.146060
vn -0.472659 -0.881245 -0.000000
vn -0.449526 -0.881245 -0.146060
vn -0.382389 -0.881246 -0.277822
vn -0.277821 -0.881246 -0.382389
vn -0.146059 -0.881246 -0.449524
vn -0.000000 -0.881246 -0.472657
vn 0.146059 -0.881246 -0.449525
vn 0.277820 -0.881246 -0.382389
vn 0.382389 -0.881246 -0.277821
s 1
g pCylinder4
usemtl initialShadingGroup
f 2/2/1 1/1/2 41/62/3
f 3/3/4 2/2/1 41/62/3
f 4/4/5 3/3/4 41/62/3
f 5/5/6 4/4/5 41/62/3
f 6/6/7 5/5/6 41/62/3
f 7/7/8 6/6/7 41/62/3
f 8/8/9 7/7/8 41/62/3
f 9/9/10 8/8/9 41/62/3
f 10/10/11 9/9/10 41/62/3
f 11/11/12 10/10/11 41/62/3
f 12/12/13 11/11/12 41/62/3
f 13/13/14 12/12/13 41/62/3
f 14/14/15 13/13/14 41/62/3
f 15/15/16 14/14/15 41/62/3
f 16/16/17 15/15/16 41/62/3
f 17/17/18 16/16/17 41/62/3
f 18/18/19 17/17/18 41/62/3
f 19/19/20 18/18/19 41/62/3
f 20/20/21 19/19/20 41/62/3
f 1/1/2 20/20/21 41/62/3
s 2
f 72/74/22 82/84/23 71/73/24
s 1
f 1/21/2 2/22/1 142/188/25 123/169/26
f 2/22/1 3/23/4 141/187/27 142/188/25
f 3/23/4 4/24/5 140/186/28 141/187/27
f 4/24/5 5/25/6 139/185/29 140/186/28
f 5/25/6 6/26/7 138/184/30 139/185/29
f 6/26/7 7/27/8 137/183/31 138/184/30
f 7/27/8 8/28/9 136/182/32 137/183/31
f 8/28/9 9/29/10 135/181/33 136/182/32
f 9/29/10 10/30/11 134/180/34 135/181/33
f 10/30/11 11/31/12 133/179/35 134/180/34
f 11/31/12 12/32/13 132/178/36 133/179/35
f 12/32/13 13/33/14 131/177/37 132/178/36
f 13/33/14 14/34/15 130/176/38 131/177/37
f 14/34/15 15/35/16 129/175/39 130/176/38
f 15/35/16 16/36/17 128/174/40 129/175/39
f 16/36/17 17/37/18 127/173/41 128/174/40
f 17/37/18 18/38/19 126/172/42 127/173/41
f 18/38/19 19/39/20 125/171/43 126/172/42
f 19/39/20 20/40/21 124/170/44 125/171/43
f 20/40/21 1/41/2 123/168/26 124/170/44
s 2
f 40/61/45 21/60/46 62/64/47 81/83/48
f 21/60/46 22/59/49 63/65/50 62/64/47
f 22/59/49 23/58/51 64/66/52 63/65/50
f 23/58/51 24/57/53 65/67/54 64/66/52
f 24/57/53 25/56/55 66/68/56 65/67/54
f 25/56/55 26/55/57 67/69/58 66/68/56
f 26/55/57 27/54/59 68/70/60 67/69/58
f 27/54/59 28/53/61 69/71/62 68/70/60
f 28/53/61 29/52/63 70/72/64 69/71/62
f 29/52/63 30/51/65 71/73/24 70/72/64
f 30/51/65 31/50/66 72/74/22 71/73/24
f 31/50/66 32/49/67 73/75/68 72/74/22
f 32/49/67 33/48/69 74/76/70 73/75/68
f 33/48/69 34/47/71 75/77/72 74/76/70
f 34/47/71 35/46/73 76/78/74 75/77/72
f 35/46/73 36/45/75 77/79/76 76/78/74
f 36/45/75 37/44/77 78/80/78 77/79/76
f 37/44/77 38/43/79 79/81/80 78/80/78
f 38/43/79 39/42/81 80/82/82 79/81/80
f 39/42/81 40/61/45 81/83/48 80/82/82
f 81/83/48 62/64/47 82/84/23
f 82/84/23 62/64/47 63/65/50
f 82/84/23 63/65/50 64/66/52
f 82/84/23 64/66/52 65/67/54
f 82/84/23 65/67/54 66/68/56
f 82/84/23 66/68/56 67/69/58
f 82/84/23 67/69/58 68/70/60
f 82/84/23 68/70/60 69/71/62
f 82/84/23 69/71/62 70/72/64
f 82/84/23 70/72/64 71/73/24
f 73/75/68 82/84/23 72/74/22
f 74/76/70 82/84/23 73/75/68
f 75/77/72 82/84/23 74/76/70
f 76/78/74 82/84/23 75/77/72
f 77/79/76 82/84/23 76/78/74
f 78/80/78 82/84/23 77/79/76
f 79/81/80 82/84/23 78/80/78
f 80/82/82 82/84/23 79/81/80
f 81/83/48 82/84/23 80/82/82
s 4
f 83/128/83 84/90/84 88/92/85 87/130/86
f 84/90/84 83/128/83 85/85/87 86/88/88
f 86/86/88 85/167/87 121/164/89 122/126/90
f 87/130/86 88/92/85 90/94/91 89/132/92
f 89/132/92 90/94/91 92/96/93 91/134/94
f 91/134/94 92/96/93 94/98/95 93/136/96
f 93/136/96 94/98/95 96/100/97 95/138/98
f 95/138/98 96/100/97 98/102/99 97/140/100
f 97/140/100 98/102/99 100/104/101 99/142/102
f 99/142/102 100/104/101 102/106/103 101/144/104
f 101/144/104 102/106/103 104/108/105 103/146/106
f 103/146/106 104/108/105 106/110/107 105/148/108
f 105/148/108 106/110/107 108/112/109 107/150/110
f 107/150/110 108/112/109 110/114/111 109/152/112
f 109/152/112 110/114/111 112/116/113 111/154/114
f 111/154/114 112/116/113 114/118/115 113/156/116
f 113/156/116 114/118/115 116/120/117 115/158/118
f 115/158/118 116/120/117 118/122/119 117/160/120
f 117/160/120 118/122/119 120/124/121 119/162/122
f 119/162/122 120/124/121 122/126/90 121/164/89
s 5
f 42/63/123 43/87/124 84/90/125 86/88/126
f 43/87/124 44/89/127 88/92/128 84/90/125
f 44/89/127 45/91/129 90/94/130 88/92/128
f 45/91/129 46/93/131 92/96/132 90/94/130
f 46/93/131 47/95/133 94/98/134 92/96/132
f 47/95/133 48/97/135 96/100/136 94/98/134
f 48/97/135 49/99/137 98/102/138 96/100/136
f 49/99/137 50/101/139 100/104/140 98/102/138
f 50/101/139 51/103/141 102/106/142 100/104/140
f 51/103/141 52/105/143 104/108/144 102/106/142
f 52/105/143 53/107/145 106/110/146 104/108/144
f 53/107/145 54/109/147 108/112/148 106/110/146
f 54/109/147 55/111/149 110/114/150 108/112/148
f 55/111/149 56/113/151 112/116/152 110/114/150
f 56/113/151 57/115/153 114/118/154 112/116/152
f 57/115/153 58/117/155 116/120/156 114/118/154
f 58/117/155 59/119/157 118/122/158 116/120/156
f 59/119/157 60/121/159 120/124/160 118/122/158
f 60/121/159 61/123/161 122/126/162 120/124/160
f 61/123/161 42/125/123 86/86/126 122/126/162
s 2
f 22/129/49 21/127/46 85/85/163 83/128/164
f 23/131/51 22/129/49 83/128/164 87/130/165
f 24/133/53 23/131/51 87/130/165 89/132/166
f 25/135/55 24/133/53 89/132/166 91/134/167
f 26/137/57 25/135/55 91/134/167 93/136/168
f 27/139/59 26/137/57 93/136/168 95/138/169
f 28/141/61 27/139/59 95/138/169 97/140/170
f 29/143/63 28/141/61 97/140/170 99/142/171
f 30/145/65 29/143/63 99/142/171 101/144/172
f 31/147/66 30/145/65 101/144/172 103/146/173
f 32/149/67 31/147/66 103/146/173 105/148/174
f 33/151/69 32/149/67 105/148/174 107/150/175
f 34/153/71 33/151/69 107/150/175 109/152/176
f 35/155/73 34/153/71 109/152/176 111/154/177
f 36/157/75 35/155/73 111/154/177 113/156/178
f 37/159/77 36/157/75 113/156/178 115/158/179
f 38/161/79 37/159/77 115/158/179 117/160/180
f 39/163/81 38/161/79 117/160/180 119/162/181
f 40/166/45 39/163/81 119/162/181 121/164/182
f 21/165/46 40/166/45 121/164/182 85/167/163
s 1
f 124/170/44 123/168/26 42/125/183 61/123/184
f 125/171/43 124/170/44 61/123/184 60/121/185
f 126/172/42 125/171/43 60/121/185 59/119/186
f 127/173/41 126/172/42 59/119/186 58/117/187
f 128/174/40 127/173/41 58/117/187 57/115/188
f 129/175/39 128/174/40 57/115/188 56/113/189
f 130/176/38 129/175/39 56/113/189 55/111/190
f 131/177/37 130/176/38 55/111/190 54/109/191
f 132/178/36 131/177/37 54/109/191 53/107/192
f 133/179/35 132/178/36 53/107/192 52/105/193
f 134/180/34 133/179/35 52/105/193 51/103/194
f 135/181/33 134/180/34 51/103/194 50/101/195
f 136/182/32 135/181/33 50/101/195 49/99/196
f 137/183/31 136/182/32 49/99/196 48/97/197
f 138/184/30 137/183/31 48/97/197 47/95/198
f 139/185/29 138/184/30 47/95/198 46/93/199
f 140/186/28 139/185/29 46/93/199 45/91/200
f 141/187/27 140/186/28 45/91/200 44/89/201
f 142/188/25 141/187/27 44/89/201 43/87/202
f 123/169/26 142/188/25 43/87/202 42/63/183
