# This file uses centimeters as units for non-parametric coordinates.

mtllib FishHead.mtl
g default
v 0.049680 -0.070342 -2.066819
v 0.028683 -0.132759 -2.066819
v 0.000000 -0.155605 -2.066819
v -0.028683 -0.132759 -2.066819
v -0.049680 -0.070342 -2.066819
v -0.057365 0.014921 -2.066819
v -0.049680 0.100184 -2.066819
v -0.028683 0.162601 -2.066819
v 0.000000 0.185447 -2.066819
v 0.028683 0.162601 -2.066819
v 0.049680 0.100184 -2.066819
v 0.057365 0.014921 -2.066819
v 0.000000 0.014921 -0.995184
v 0.107045 -0.124771 -1.681468
v 0.123605 0.014921 -1.681468
v 0.107045 0.154613 -1.681468
v 0.061802 0.256874 -1.681468
v 0.000000 0.294305 -1.681468
v -0.061802 0.256874 -1.681468
v -0.107045 0.154613 -1.681468
v -0.123605 0.014921 -1.681468
v -0.107045 -0.124771 -1.681468
v -0.061802 -0.227032 -1.681468
v 0.000000 -0.264462 -1.681468
v 0.061802 -0.227032 -1.681468
v 0.012420 -0.006395 -2.196637
v 0.007171 -0.021999 -2.196637
v 0.000000 -0.027710 -2.196637
v -0.007171 -0.021999 -2.196637
v -0.012420 -0.006395 -2.196637
v -0.014341 0.014921 -2.196637
v -0.012420 0.036237 -2.196637
v -0.007171 0.051841 -2.196637
v 0.000000 0.057553 -2.196637
v 0.007171 0.051841 -2.196637
v 0.012420 0.036237 -2.196637
v 0.014341 0.014921 -2.196637
v -0.000000 0.014921 -2.196637
v -0.011465 0.067825 -1.370454
v -0.011465 0.086114 -1.406348
v -0.011465 0.114600 -1.434834
v -0.011465 0.150495 -1.453123
v -0.011465 0.190284 -1.459425
v -0.011465 0.230073 -1.453123
v -0.011465 0.265968 -1.434834
v -0.011465 0.294454 -1.406348
v -0.011465 0.312743 -1.370454
v -0.011465 0.319045 -1.330664
v -0.011465 0.312743 -1.290875
v -0.011465 0.294454 -1.254981
v -0.011465 0.265968 -1.226495
v -0.011465 0.230073 -1.208206
v -0.011465 0.190284 -1.201904
v -0.011465 0.150495 -1.208206
v -0.011465 0.114600 -1.226495
v -0.011465 0.086114 -1.254981
v -0.011465 0.067825 -1.290875
v -0.011465 0.061523 -1.330664
v 0.187766 0.079460 -1.366673
v 0.187766 0.096012 -1.399158
v 0.187766 0.121791 -1.424937
v 0.187766 0.154275 -1.441489
v 0.187766 0.190284 -1.447191
v 0.187766 0.226293 -1.441489
v 0.187766 0.258777 -1.424937
v 0.187766 0.284556 -1.399158
v 0.187766 0.301108 -1.366673
v 0.187766 0.306811 -1.330664
v 0.187766 0.301108 -1.294656
v 0.187766 0.284556 -1.262172
v 0.187766 0.258777 -1.236392
v 0.187766 0.226293 -1.219841
v 0.187766 0.190284 -1.214138
v 0.187766 0.154275 -1.219841
v 0.187766 0.121791 -1.236392
v 0.187766 0.096012 -1.262172
v 0.187766 0.079460 -1.294656
v 0.187766 0.073757 -1.330664
v -0.011465 0.190284 -1.330664
v 0.200117 0.133527 -1.349106
v 0.200117 0.142004 -1.365742
v 0.200117 0.155206 -1.378945
v 0.200117 0.171842 -1.387422
v 0.200117 0.190284 -1.390342
v 0.200117 0.208725 -1.387422
v 0.200117 0.225362 -1.378945
v 0.200117 0.238564 -1.365742
v 0.200117 0.247041 -1.349106
v 0.200117 0.249962 -1.330664
v 0.200117 0.247041 -1.312223
v 0.200117 0.238564 -1.295587
v 0.200117 0.225362 -1.282384
v 0.200117 0.208725 -1.273908
v 0.200117 0.190284 -1.270987
v 0.200117 0.171842 -1.273908
v 0.200117 0.155206 -1.282384
v 0.200117 0.142004 -1.295587
v 0.200117 0.133527 -1.312223
v 0.200117 0.130606 -1.330664
v 0.200117 0.190284 -1.330665
v 0.167843 0.071008 -1.369420
v 0.167843 0.064869 -1.330664
v 0.167843 0.071008 -1.291909
v 0.167843 0.088821 -1.256948
v 0.167843 0.116567 -1.229202
v 0.167843 0.151529 -1.211388
v 0.167843 0.190284 -1.205250
v 0.167843 0.229039 -1.211388
v 0.167843 0.264001 -1.229202
v 0.167843 0.291746 -1.256948
v 0.167843 0.309560 -1.291909
v 0.167843 0.315699 -1.330664
v 0.167843 0.309560 -1.369420
v 0.167843 0.291746 -1.404381
v 0.167843 0.264001 -1.432127
v 0.167843 0.229039 -1.449941
v 0.167843 0.190284 -1.456079
v 0.167843 0.151529 -1.449941
v 0.167843 0.116567 -1.432127
v 0.167843 0.088821 -1.404381
v 0.149912 0.067825 -1.370454
v 0.149912 0.061523 -1.330664
v 0.149912 0.067825 -1.290875
v 0.149912 0.086114 -1.254981
v 0.149912 0.114600 -1.226495
v 0.149912 0.150495 -1.208206
v 0.149912 0.190284 -1.201904
v 0.149912 0.230073 -1.208206
v 0.149912 0.265968 -1.226495
v 0.149912 0.294454 -1.254981
v 0.149912 0.312743 -1.290875
v 0.149912 0.319045 -1.330664
v 0.149912 0.312743 -1.370454
v 0.149912 0.294454 -1.406348
v 0.149912 0.265968 -1.434834
v 0.149912 0.230073 -1.453123
v 0.149912 0.190284 -1.459425
v 0.149912 0.150495 -1.453123
v 0.149912 0.114600 -1.434834
v 0.149912 0.086114 -1.406348
v 0.134848 -0.187598 -1.156062
v 0.123626 -0.171548 -1.121402
v 0.077772 -0.335291 -1.158771
v 0.073078 -0.315756 -1.124413
v 0.000000 -0.389679 -1.157893
v 0.000000 -0.367969 -1.124770
v -0.077772 -0.335291 -1.158771
v -0.073078 -0.315756 -1.124413
v -0.134848 -0.187598 -1.156062
v -0.123626 -0.171548 -1.121402
v -0.155779 0.014921 -1.154910
v -0.141350 0.014921 -1.120163
v -0.134848 0.217440 -1.156062
v -0.123626 0.201390 -1.121402
v -0.077772 0.365133 -1.158771
v -0.073078 0.345599 -1.124413
v 0.000000 0.419521 -1.157893
v 0.000000 0.397811 -1.124770
v 0.077772 0.365133 -1.158771
v 0.073078 0.345599 -1.124413
v 0.134848 0.217440 -1.156062
v 0.123626 0.201390 -1.121402
v 0.155779 0.014921 -1.154910
v 0.141350 0.014921 -1.120163
vt 0.375000 0.687500
vt 0.395833 0.687500
vt 0.416667 0.687500
vt 0.437500 0.687500
vt 0.458333 0.687500
vt 0.479167 0.687500
vt 0.500000 0.687500
vt 0.520833 0.687500
vt 0.541667 0.687500
vt 0.562500 0.687500
vt 0.583333 0.687500
vt 0.604167 0.687500
vt 0.625000 0.687500
vt 0.635316 0.765625
vt 0.578125 0.708434
vt 0.500000 0.687500
vt 0.421875 0.708434
vt 0.364684 0.765625
vt 0.343750 0.843750
vt 0.364684 0.921875
vt 0.421875 0.979066
vt 0.500000 1.000000
vt 0.578125 0.979066
vt 0.635316 0.921875
vt 0.656250 0.843750
vt 0.625000 0.537500
vt 0.567658 0.882812
vt 0.539062 0.911408
vt 0.500000 0.921875
vt 0.460938 0.911408
vt 0.432342 0.882812
vt 0.421875 0.843750
vt 0.432342 0.804688
vt 0.460938 0.776092
vt 0.500000 0.765625
vt 0.539062 0.776092
vt 0.567658 0.804688
vt 0.578125 0.843750
vt 0.500000 0.843750
vt 0.375000 0.312500
vt 0.387500 0.312500
vt 0.387500 0.616250
vt 0.375000 0.616250
vt 0.400000 0.312500
vt 0.400000 0.616250
vt 0.412500 0.312500
vt 0.412500 0.616250
vt 0.425000 0.312500
vt 0.425000 0.616250
vt 0.437500 0.312500
vt 0.437500 0.616250
vt 0.450000 0.312500
vt 0.450000 0.616250
vt 0.462500 0.312500
vt 0.462500 0.616250
vt 0.475000 0.312500
vt 0.475000 0.616250
vt 0.487500 0.312500
vt 0.487500 0.616250
vt 0.500000 0.312500
vt 0.500000 0.616250
vt 0.512500 0.312500
vt 0.512500 0.616250
vt 0.525000 0.312500
vt 0.525000 0.616250
vt 0.537500 0.312500
vt 0.537500 0.616250
vt 0.550000 0.312500
vt 0.550000 0.616250
vt 0.562500 0.312500
vt 0.562500 0.616250
vt 0.575000 0.312500
vt 0.575000 0.616250
vt 0.587500 0.312500
vt 0.587500 0.616250
vt 0.600000 0.312500
vt 0.600000 0.616250
vt 0.612500 0.312500
vt 0.612500 0.616250
vt 0.625000 0.312500
vt 0.625000 0.616250
vt 0.626409 0.064408
vt 0.648603 0.107966
vt 0.500000 0.156250
vt 0.591842 0.029841
vt 0.548284 0.007647
vt 0.500000 -0.000000
vt 0.451716 0.007647
vt 0.408159 0.029841
vt 0.373591 0.064409
vt 0.351397 0.107966
vt 0.343750 0.156250
vt 0.351397 0.204534
vt 0.373591 0.248091
vt 0.408159 0.282659
vt 0.451716 0.304853
vt 0.500000 0.312500
vt 0.548284 0.304853
vt 0.591841 0.282659
vt 0.626409 0.248091
vt 0.648603 0.204534
vt 0.656250 0.156250
vt 0.425699 0.819608
vt 0.500000 0.843750
vt 0.421875 0.843750
vt 0.656250 0.843750
vt 0.648603 0.892034
vt 0.574301 0.867892
vt 0.578125 0.843750
vt 0.626409 0.935591
vt 0.563204 0.889671
vt 0.591841 0.970159
vt 0.545921 0.906954
vt 0.548284 0.992353
vt 0.524142 0.918051
vt 0.500000 1.000000
vt 0.500000 0.921875
vt 0.451716 0.992353
vt 0.475858 0.918051
vt 0.408159 0.970159
vt 0.454079 0.906954
vt 0.373591 0.935591
vt 0.436796 0.889671
vt 0.351397 0.892034
vt 0.425699 0.867892
vt 0.343750 0.843750
vt 0.351397 0.795466
vt 0.373591 0.751909
vt 0.436796 0.797829
vt 0.408159 0.717341
vt 0.454079 0.780546
vt 0.451716 0.695147
vt 0.475858 0.769449
vt 0.500000 0.687500
vt 0.500000 0.765625
vt 0.548284 0.695147
vt 0.524142 0.769449
vt 0.591842 0.717341
vt 0.545921 0.780545
vt 0.626409 0.751908
vt 0.563205 0.797829
vt 0.648603 0.795466
vt 0.574301 0.819608
vt 0.612500 0.650000
vt 0.625000 0.650000
vt 0.625000 0.687500
vt 0.612500 0.687500
vt 0.600000 0.650000
vt 0.600000 0.687500
vt 0.587500 0.650000
vt 0.587500 0.687500
vt 0.575000 0.650000
vt 0.575000 0.687500
vt 0.562500 0.650000
vt 0.562500 0.687500
vt 0.550000 0.650000
vt 0.550000 0.687500
vt 0.537500 0.650000
vt 0.537500 0.687500
vt 0.525000 0.650000
vt 0.525000 0.687500
vt 0.512500 0.650000
vt 0.512500 0.687500
vt 0.500000 0.650000
vt 0.500000 0.687500
vt 0.487500 0.650000
vt 0.487500 0.687500
vt 0.475000 0.650000
vt 0.475000 0.687500
vt 0.462500 0.650000
vt 0.462500 0.687500
vt 0.450000 0.650000
vt 0.450000 0.687500
vt 0.437500 0.650000
vt 0.437500 0.687500
vt 0.425000 0.650000
vt 0.425000 0.687500
vt 0.412500 0.650000
vt 0.412500 0.687500
vt 0.400000 0.650000
vt 0.400000 0.687500
vt 0.387500 0.650000
vt 0.387500 0.687500
vt 0.375000 0.650000
vt 0.375000 0.687500
vt 0.375000 0.321548
vt 0.375000 0.312500
vt 0.392953 0.312500
vt 0.623156 0.312500
vt 0.604658 0.312500
vt 0.395833 0.312500
vt 0.413140 0.312500
vt 0.420193 0.312500
vt 0.437500 0.312500
vt 0.440380 0.312500
vt 0.458333 0.312500
vt 0.460178 0.312500
vt 0.478676 0.312500
vt 0.479658 0.312500
vt 0.498156 0.312500
vt 0.500000 0.312500
vt 0.517953 0.312500
vt 0.520833 0.312500
vt 0.538140 0.312500
vt 0.545193 0.312500
vt 0.562500 0.312500
vt 0.565380 0.312500
vt 0.583333 0.312500
vt 0.585178 0.312500
vt 0.603675 0.312500
vt 0.395833 0.322662
vt 0.375000 0.537500
vt 0.416667 0.322300
vt 0.395833 0.537500
vt 0.437500 0.322662
vt 0.416667 0.537500
vt 0.458333 0.321548
vt 0.437500 0.537500
vt 0.479167 0.321075
vt 0.458333 0.537500
vt 0.500000 0.321548
vt 0.479167 0.537500
vt 0.520833 0.322662
vt 0.500000 0.537500
vt 0.541667 0.322299
vt 0.520833 0.537500
vt 0.562500 0.322662
vt 0.541667 0.537500
vt 0.583333 0.321548
vt 0.562500 0.537500
vt 0.604167 0.321075
vt 0.583333 0.537500
vt 0.625000 0.321548
vt 0.604167 0.537500
vt 0.622994 0.085239
vt 0.572704 0.030323
vt 0.500000 0.010439
vt 0.427296 0.030323
vt 0.377006 0.085239
vt 0.359373 0.156250
vt 0.377006 0.227261
vt 0.427296 0.282177
vt 0.500000 0.302061
vt 0.572704 0.282177
vt 0.622994 0.227261
vt 0.500000 0.156250
vt 0.640627 0.156250
vn -0.920039 0.153939 -0.360320
vn 0.000000 0.000000 -1.000000
vn -0.943304 -0.000000 -0.331931
vn 0.995319 -0.000000 -0.096640
vn 0.968566 -0.223670 -0.108864
vn 0.956769 -0.213452 -0.197566
vn 0.982433 -0.000000 -0.186614
vn 0.968566 0.223670 -0.108864
vn 0.956769 0.213452 -0.197566
vn 0.812231 0.560988 -0.159917
vn 0.806242 0.537609 -0.246883
vn 0.000000 0.970111 -0.242661
vn -0.000000 0.944763 -0.327754
vn -0.812231 0.560988 -0.159917
vn -0.806242 0.537609 -0.246883
vn -0.968566 0.223670 -0.108864
vn -0.956769 0.213452 -0.197566
vn -0.995319 0.000000 -0.096640
vn -0.982433 -0.000000 -0.186614
vn -0.968566 -0.223670 -0.108864
vn -0.956768 -0.213452 -0.197566
vn -0.812231 -0.560988 -0.159917
vn -0.806242 -0.537609 -0.246883
vn -0.000000 -0.970111 -0.242661
vn 0.000000 -0.944763 -0.327754
vn 0.812231 -0.560988 -0.159917
vn 0.806242 -0.537609 -0.246883
vn 0.920039 -0.153939 -0.360321
vn 0.943304 -0.000000 -0.331930
vn 0.783049 -0.389397 -0.484979
vn 0.000002 -0.702054 -0.712124
vn -0.783048 -0.389398 -0.484980
vn -0.920039 -0.153939 -0.360321
vn -0.783050 0.389396 -0.484978
vn -0.000002 0.702054 -0.712124
vn 0.783049 0.389397 -0.484978
vn 0.920039 0.153938 -0.360320
vn -0.337928 -0.895108 -0.290837
vn -0.337928 -0.761424 -0.553207
vn 0.018136 -0.808884 -0.587689
vn 0.018136 -0.950901 -0.308965
vn -0.337929 -0.553207 -0.761424
vn 0.018136 -0.587688 -0.808884
vn -0.337928 -0.290836 -0.895108
vn 0.018136 -0.308964 -0.950901
vn -0.337929 -0.000000 -0.941172
vn 0.018136 -0.000000 -0.999836
vn -0.337928 0.290836 -0.895108
vn 0.018136 0.308964 -0.950901
vn -0.337928 0.553207 -0.761424
vn 0.018136 0.587689 -0.808884
vn -0.337929 0.761424 -0.553207
vn 0.018136 0.808884 -0.587689
vn -0.337928 0.895108 -0.290838
vn 0.018136 0.950900 -0.308966
vn -0.337927 0.941172 -0.000000
vn 0.018136 0.999836 -0.000000
vn -0.337928 0.895108 0.290838
vn 0.018136 0.950900 0.308966
vn -0.337927 0.761425 0.553206
vn 0.018136 0.808885 0.587687
vn -0.337928 0.553207 0.761424
vn 0.018136 0.587688 0.808884
vn -0.337929 0.290839 0.895107
vn 0.018136 0.308967 0.950900
vn -0.337928 0.000000 0.941172
vn 0.018137 0.000000 0.999836
vn -0.337928 -0.290839 0.895107
vn 0.018137 -0.308967 0.950900
vn -0.337928 -0.553207 0.761424
vn 0.018136 -0.587688 0.808884
vn -0.337928 -0.761425 0.553206
vn 0.018136 -0.808885 0.587687
vn -0.337928 -0.895108 0.290838
vn 0.018136 -0.950900 0.308967
vn -0.337928 -0.941172 0.000001
vn 0.018136 -0.999836 0.000001
vn -1.000000 -0.000000 0.000000
vn 0.986144 0.157774 0.051264
vn 1.000000 0.000000 0.000000
vn 0.986144 0.165894 -0.000000
vn 0.850290 -0.526314 0.000001
vn 0.850291 -0.500554 -0.162639
vn 0.986144 -0.157774 -0.051263
vn 0.986144 -0.165894 0.000000
vn 0.850290 -0.425797 -0.309360
vn 0.986144 -0.134211 -0.097510
vn 0.850290 -0.309360 -0.425797
vn 0.986144 -0.097510 -0.134211
vn 0.850290 -0.162638 -0.500556
vn 0.986144 -0.051263 -0.157775
vn 0.850291 -0.000000 -0.526314
vn 0.986144 0.000000 -0.165894
vn 0.850290 0.162638 -0.500555
vn 0.986144 0.051263 -0.157775
vn 0.850290 0.309360 -0.425797
vn 0.986144 0.097510 -0.134211
vn 0.850290 0.425798 -0.309360
vn 0.986144 0.134212 -0.097510
vn 0.850290 0.500555 -0.162639
vn 0.986144 0.157775 -0.051264
vn 0.850290 0.526315 -0.000000
vn 0.850290 0.500555 0.162640
vn 0.850291 0.425797 0.309359
vn 0.986144 0.134210 0.097509
vn 0.850291 0.309358 0.425797
vn 0.986144 0.097509 0.134210
vn 0.850290 0.162639 0.500554
vn 0.986144 0.051263 0.157774
vn 0.850291 0.000000 0.526314
vn 0.986144 -0.000000 0.165893
vn 0.850290 -0.162639 0.500554
vn 0.986144 -0.051263 0.157774
vn 0.850290 -0.309359 0.425798
vn 0.986144 -0.097509 0.134210
vn 0.850290 -0.425798 0.309359
vn 0.986144 -0.134211 0.097510
vn 0.850290 -0.500555 0.162640
vn 0.986144 -0.157775 0.051264
vn 0.301425 -0.953490 0.000001
vn 0.301425 -0.906823 -0.294643
vn 0.301424 -0.906823 0.294644
vn 0.301423 -0.771391 0.560447
vn 0.301423 -0.560447 0.771390
vn 0.301426 -0.294644 0.906823
vn 0.301429 0.000000 0.953489
vn 0.301425 0.294644 0.906823
vn 0.301423 0.560447 0.771390
vn 0.301424 0.771390 0.560447
vn 0.301424 0.906823 0.294644
vn 0.301425 0.953490 0.000000
vn 0.301424 0.906823 -0.294644
vn 0.301423 0.771391 -0.560447
vn 0.301423 0.560448 -0.771390
vn 0.301423 0.294642 -0.906824
vn 0.301424 -0.000000 -0.953490
vn 0.301423 -0.294642 -0.906824
vn 0.301422 -0.560448 -0.771390
vn 0.301424 -0.771390 -0.560447
vn 0.970256 -0.237064 -0.049030
vn 0.697262 -0.173270 0.695560
vn 0.469032 -0.355025 0.808682
vn 0.797080 -0.594355 -0.106792
vn 0.999483 -0.000000 -0.032142
vn 0.762006 0.000000 0.647570
vn -0.000000 -0.488102 0.872787
vn -0.000000 -0.983938 -0.178513
vn -0.469032 -0.355025 0.808682
vn -0.797081 -0.594355 -0.106792
vn -0.697262 -0.173270 0.695560
vn -0.970256 -0.237064 -0.049030
vn -0.762006 0.000000 0.647570
vn -0.999483 0.000000 -0.032142
vn -0.697262 0.173270 0.695560
vn -0.970256 0.237064 -0.049030
vn -0.469032 0.355025 0.808682
vn -0.797080 0.594356 -0.106792
vn -0.000000 0.488102 0.872787
vn 0.000000 0.983938 -0.178513
vn 0.469032 0.355025 0.808682
vn 0.797080 0.594355 -0.106792
vn 0.697262 0.173270 0.695560
vn 0.970256 0.237064 -0.049030
vn 0.000000 0.000000 1.000000
s 1
g pCylinder6
usemtl initialShadingGroup
f 32/33/1 38/39/2 31/32/3
f 15/234/4 14/26/5 1/13/6 12/12/7
f 16/232/8 15/234/4 12/12/7 11/11/9
f 17/230/10 16/232/8 11/11/9 10/10/11
f 18/228/12 17/230/10 10/10/11 9/9/13
f 19/226/14 18/228/12 9/9/13 8/8/15
f 20/224/16 19/226/14 8/8/15 7/7/17
f 21/222/18 20/224/16 7/7/17 6/6/19
f 22/220/20 21/222/18 6/6/19 5/5/21
f 23/218/22 22/220/20 5/5/21 4/4/23
f 24/216/24 23/218/22 4/4/23 3/3/25
f 25/214/26 24/216/24 3/3/25 2/2/27
f 14/212/5 25/214/26 2/2/27 1/1/6
f 12/25/7 1/24/6 26/27/28 37/38/29
f 1/24/6 2/23/27 27/28/30 26/27/28
f 2/23/27 3/22/25 28/29/31 27/28/30
f 3/22/25 4/21/23 29/30/32 28/29/31
f 4/21/23 5/20/21 30/31/33 29/30/32
f 5/20/21 6/19/19 31/32/3 30/31/33
f 6/19/19 7/18/17 32/33/1 31/32/3
f 7/18/17 8/17/15 33/34/34 32/33/1
f 8/17/15 9/16/13 34/35/35 33/34/34
f 9/16/13 10/15/11 35/36/36 34/35/35
f 10/15/11 11/14/9 36/37/37 35/36/36
f 11/14/9 12/25/7 37/38/29 36/37/37
f 37/38/29 26/27/28 38/39/2
f 38/39/2 26/27/28 27/28/30
f 38/39/2 27/28/30 28/29/31
f 38/39/2 28/29/31 29/30/32
f 38/39/2 29/30/32 30/31/33
f 38/39/2 30/31/33 31/32/3
f 33/34/34 38/39/2 32/33/1
f 34/35/35 38/39/2 33/34/34
f 35/36/36 38/39/2 34/35/35
f 36/37/37 38/39/2 35/36/36
f 37/38/29 38/39/2 36/37/37
s 3
f 39/40/38 40/41/39 140/42/40 121/43/41
f 40/41/39 41/44/42 139/45/43 140/42/40
f 41/44/42 42/46/44 138/47/45 139/45/43
f 42/46/44 43/48/46 137/49/47 138/47/45
f 43/48/46 44/50/48 136/51/49 137/49/47
f 44/50/48 45/52/50 135/53/51 136/51/49
f 45/52/50 46/54/52 134/55/53 135/53/51
f 46/54/52 47/56/54 133/57/55 134/55/53
f 47/56/54 48/58/56 132/59/57 133/57/55
f 48/58/56 49/60/58 131/61/59 132/59/57
f 49/60/58 50/62/60 130/63/61 131/61/59
f 50/62/60 51/64/62 129/65/63 130/63/61
f 51/64/62 52/66/64 128/67/65 129/65/63
f 52/66/64 53/68/66 127/69/67 128/67/65
f 53/68/66 54/70/68 126/71/69 127/69/67
f 54/70/68 55/72/70 125/73/71 126/71/69
f 55/72/70 56/74/72 124/75/73 125/73/71
f 56/74/72 57/76/74 123/77/75 124/75/73
f 57/76/74 58/78/76 122/79/77 123/77/75
f 58/78/76 39/80/38 121/81/41 122/79/77
f 40/82/39 39/83/38 79/84/78
f 41/85/42 40/82/39 79/84/78
f 42/86/44 41/85/42 79/84/78
f 43/87/46 42/86/44 79/84/78
f 44/88/48 43/87/46 79/84/78
f 45/89/50 44/88/48 79/84/78
f 46/90/52 45/89/50 79/84/78
f 47/91/54 46/90/52 79/84/78
f 48/92/56 47/91/54 79/84/78
f 49/93/58 48/92/56 79/84/78
f 50/94/60 49/93/58 79/84/78
f 51/95/62 50/94/60 79/84/78
f 52/96/64 51/95/62 79/84/78
f 53/97/66 52/96/64 79/84/78
f 54/98/68 53/97/66 79/84/78
f 55/99/70 54/98/68 79/84/78
f 56/100/72 55/99/70 79/84/78
f 57/101/74 56/100/72 79/84/78
f 58/102/76 57/101/74 79/84/78
f 39/83/38 58/102/76 79/84/78
f 90/103/79 100/104/80 89/105/81
f 78/106/82 59/107/83 80/108/84 99/109/85
f 59/107/83 60/110/86 81/111/87 80/108/84
f 60/110/86 61/112/88 82/113/89 81/111/87
f 61/112/88 62/114/90 83/115/91 82/113/89
f 62/114/90 63/116/92 84/117/93 83/115/91
f 63/116/92 64/118/94 85/119/95 84/117/93
f 64/118/94 65/120/96 86/121/97 85/119/95
f 65/120/96 66/122/98 87/123/99 86/121/97
f 66/122/98 67/124/100 88/125/101 87/123/99
f 67/124/100 68/126/102 89/105/81 88/125/101
f 68/126/102 69/127/103 90/103/79 89/105/81
f 69/127/103 70/128/104 91/129/105 90/103/79
f 70/128/104 71/130/106 92/131/107 91/129/105
f 71/130/106 72/132/108 93/133/109 92/131/107
f 72/132/108 73/134/110 94/135/111 93/133/109
f 73/134/110 74/136/112 95/137/113 94/135/111
f 74/136/112 75/138/114 96/139/115 95/137/113
f 75/138/114 76/140/116 97/141/117 96/139/115
f 76/140/116 77/142/118 98/143/119 97/141/117
f 77/142/118 78/106/82 99/109/85 98/143/119
f 99/109/85 80/108/84 100/104/80
f 100/104/80 80/108/84 81/111/87
f 100/104/80 81/111/87 82/113/89
f 100/104/80 82/113/89 83/115/91
f 100/104/80 83/115/91 84/117/93
f 100/104/80 84/117/93 85/119/95
f 100/104/80 85/119/95 86/121/97
f 100/104/80 86/121/97 87/123/99
f 100/104/80 87/123/99 88/125/101
f 100/104/80 88/125/101 89/105/81
f 91/129/105 100/104/80 90/103/79
f 92/131/107 100/104/80 91/129/105
f 93/133/109 100/104/80 92/131/107
f 94/135/111 100/104/80 93/133/109
f 95/137/113 100/104/80 94/135/111
f 96/139/115 100/104/80 95/137/113
f 97/141/117 100/104/80 96/139/115
f 98/143/119 100/104/80 97/141/117
f 99/109/85 100/104/80 98/143/119
f 102/144/120 101/145/121 59/146/83 78/147/82
f 103/148/122 102/144/120 78/147/82 77/149/118
f 104/150/123 103/148/122 77/149/118 76/151/116
f 105/152/124 104/150/123 76/151/116 75/153/114
f 106/154/125 105/152/124 75/153/114 74/155/112
f 107/156/126 106/154/125 74/155/112 73/157/110
f 108/158/127 107/156/126 73/157/110 72/159/108
f 109/160/128 108/158/127 72/159/108 71/161/106
f 110/162/129 109/160/128 71/161/106 70/163/104
f 111/164/130 110/162/129 70/163/104 69/165/103
f 112/166/131 111/164/130 69/165/103 68/167/102
f 113/168/132 112/166/131 68/167/102 67/169/100
f 114/170/133 113/168/132 67/169/100 66/171/98
f 115/172/134 114/170/133 66/171/98 65/173/96
f 116/174/135 115/172/134 65/173/96 64/175/94
f 117/176/136 116/174/135 64/175/94 63/177/92
f 118/178/137 117/176/136 63/177/92 62/179/90
f 119/180/138 118/178/137 62/179/90 61/181/88
f 120/182/139 119/180/138 61/181/88 60/183/86
f 101/184/121 120/182/139 60/183/86 59/185/83
f 122/79/77 121/81/41 101/145/121 102/144/120
f 123/77/75 122/79/77 102/144/120 103/148/122
f 124/75/73 123/77/75 103/148/122 104/150/123
f 125/73/71 124/75/73 104/150/123 105/152/124
f 126/71/69 125/73/71 105/152/124 106/154/125
f 127/69/67 126/71/69 106/154/125 107/156/126
f 128/67/65 127/69/67 107/156/126 108/158/127
f 129/65/63 128/67/65 108/158/127 109/160/128
f 130/63/61 129/65/63 109/160/128 110/162/129
f 131/61/59 130/63/61 110/162/129 111/164/130
f 132/59/57 131/61/59 111/164/130 112/166/131
f 133/57/55 132/59/57 112/166/131 113/168/132
f 134/55/53 133/57/55 113/168/132 114/170/133
f 135/53/51 134/55/53 114/170/133 115/172/134
f 136/51/49 135/53/51 115/172/134 116/174/135
f 137/49/47 136/51/49 116/174/135 117/176/136
f 138/47/45 137/49/47 117/176/136 118/178/137
f 139/45/43 138/47/45 118/178/137 119/180/138
f 140/42/40 139/45/43 119/180/138 120/182/139
f 121/43/41 140/42/40 120/182/139 101/184/121
s 1
f 141/186/140 142/187/141 144/188/142 143/211/143
f 142/189/141 141/233/140 163/231/144 164/190/145
f 143/211/143 144/191/142 146/192/146 145/213/147
f 145/213/147 146/193/146 148/194/148 147/215/149
f 147/215/149 148/195/148 150/196/150 149/217/151
f 149/217/151 150/197/150 152/198/152 151/219/153
f 151/219/153 152/199/152 154/200/154 153/221/155
f 153/221/155 154/201/154 156/202/156 155/223/157
f 155/223/157 156/203/156 158/204/158 157/225/159
f 157/225/159 158/205/158 160/206/160 159/227/161
f 159/227/161 160/207/160 162/208/162 161/229/163
f 161/229/163 162/209/162 164/210/145 163/231/144
f 141/186/140 143/211/143 25/214/26 14/212/5
f 143/211/143 145/213/147 24/216/24 25/214/26
f 145/213/147 147/215/149 23/218/22 24/216/24
f 147/215/149 149/217/151 22/220/20 23/218/22
f 149/217/151 151/219/153 21/222/18 22/220/20
f 151/219/153 153/221/155 20/224/16 21/222/18
f 153/221/155 155/223/157 19/226/14 20/224/16
f 155/223/157 157/225/159 18/228/12 19/226/14
f 157/225/159 159/227/161 17/230/10 18/228/12
f 159/227/161 161/229/163 16/232/8 17/230/10
f 161/229/163 163/231/144 15/234/4 16/232/8
f 163/231/144 141/233/140 14/26/5 15/234/4
f 144/236/142 142/235/141 13/246/164
f 146/237/146 144/236/142 13/246/164
f 148/238/148 146/237/146 13/246/164
f 150/239/150 148/238/148 13/246/164
f 152/240/152 150/239/150 13/246/164
f 154/241/154 152/240/152 13/246/164
f 156/242/156 154/241/154 13/246/164
f 158/243/158 156/242/156 13/246/164
f 160/244/160 158/243/158 13/246/164
f 162/245/162 160/244/160 13/246/164
f 164/247/145 162/245/162 13/246/164
f 142/235/141 164/247/145 13/246/164
