# This file uses meters as units for non-parametric coordinates.

mtllib FishHead.mtl
g default
v -0.696696 0.173205 15.265937
v -0.800606 -0.445318 16.223457
v -2.171369 0.173248 12.873094
v -2.368441 -0.445325 13.678937
v -3.540885 0.173248 10.854882
v -3.833468 -0.445318 11.519951
v -4.590356 0.377220 9.376081
v -4.964365 -0.445318 9.926413
v -5.001733 0.674179 7.772902
v -5.606921 -0.443388 8.435685
v 3.098414 0.372050 9.106390
v 3.491663 -0.445291 9.617986
v 2.450215 0.377220 10.427568
v 2.797704 -0.445322 11.031609
v 2.184918 0.173248 12.090952
v 2.514980 -0.445342 12.805062
v 1.848209 0.173248 13.125288
v 2.155149 -0.445343 13.910258
v 1.777650 0.173205 13.711177
v 2.078042 -0.445318 14.552812
v 0.677325 0.173205 15.513840
v 0.870038 -0.445318 16.531883
v 0.340350 0.172841 15.703852
v 0.433100 -0.445318 16.788906
v 0.257401 -0.445318 16.717279
v 0.491231 0.173248 15.423120
v 0.470303 -0.445321 16.306583
v 0.545535 0.173248 15.137967
v 0.524670 -0.445325 16.021429
v 0.611637 0.168964 14.487597
v 0.579863 -0.445318 15.610600
v 0.063103 0.172970 14.761316
v 0.211587 -0.445318 15.739444
v -0.123611 0.173205 15.146785
v 0.024265 -0.445316 16.120778
v -0.413450 0.173248 15.443214
v -0.296097 -0.445321 16.447401
v -0.553004 0.171865 15.582669
v -0.511051 -0.445318 16.708675
v -0.631068 0.172970 15.552460
v -0.724028 -0.445318 16.562920
v -0.688633 -1.084631 15.202428
v -2.157551 -1.084685 12.819640
v -3.520420 -1.084685 10.811242
v -4.564276 -1.288603 9.339368
v -4.959209 -1.613437 7.725582
v 3.070068 -1.274815 9.075691
v 2.425079 -1.288603 10.389677
v 2.161576 -1.084685 12.045776
v 1.826323 -1.084685 13.075750
v 1.756371 -1.084631 13.656722
v 0.663289 -1.084561 15.445817
v 0.341645 -1.084320 15.636998
v 0.494846 -1.084631 15.365465
v 0.549162 -1.084685 15.081248
v 0.615668 -1.079661 14.408064
v 0.052002 -1.084320 14.696161
v -0.135563 -1.084631 15.084193
v -0.422662 -1.084685 15.377869
v -0.556121 -1.083049 15.506036
v -0.623197 -1.084320 15.485628
v -5.043145 0.736520 7.156053
v -5.779490 -0.438839 6.515575
v 3.092832 0.736521 7.156053
v 3.782059 -0.438979 6.515582
v 3.079244 -1.649045 7.182183
v -5.025963 -1.649045 7.182183
vt 0.043369 0.029076
vt 0.044037 0.009341
vt 0.031309 0.004976
vt 0.034588 0.026063
vt 0.130713 0.029083
vt 0.159594 0.009341
vt 0.206411 0.025751
vt 0.260375 0.004905
vt 0.262627 0.022093
vt 0.335766 0.000000
vt 0.308637 0.028824
vt 0.397869 0.009084
vt 0.308637 0.028824
vt 0.324908 0.033160
vt 0.420540 0.015217
vt 0.226611 0.329953
vt 0.183052 0.263385
vt 0.144458 0.229848
vt 0.174412 0.284602
vt 0.144458 0.229848
vt 0.120078 0.191173
vt 0.141955 0.233088
vt 0.080407 0.157048
vt 0.089313 0.187812
vt 0.058537 0.131286
vt 0.060231 0.153552
vt 0.044167 0.119864
vt 0.040644 0.137981
vt 0.014418 0.061380
vt 0.000000 0.058077
vt 0.014667 0.049261
vt 0.000402 0.038482
vt 0.006323 0.034151
vt 0.019876 0.057948
vt 0.015524 0.049489
vt 0.026533 0.064032
vt 0.023807 0.057062
vt 0.040273 0.075274
vt 0.036211 0.067211
vt 0.044204 0.057330
vt 0.039440 0.052476
vt 0.037181 0.046177
vt 0.030686 0.038575
vt 0.034088 0.033693
vt 0.026433 0.021405
vt 0.031885 0.027265
vt 0.022192 0.009031
vt 0.043409 0.029410
vt 0.130794 0.029407
vt 0.034643 0.026411
vt 0.206468 0.026076
vt 0.262655 0.022420
vt 0.308653 0.029152
vt 0.323909 0.033210
vt 0.182590 0.262564
vt 0.144668 0.229595
vt 0.120313 0.190943
vt 0.080646 0.156834
vt 0.058769 0.131064
vt 0.044450 0.119685
vt 0.014766 0.061329
vt 0.014814 0.049581
vt 0.019700 0.058188
vt 0.026392 0.064297
vt 0.040506 0.075846
vt 0.044570 0.057292
vt 0.037495 0.046042
vt 0.034421 0.033621
vt 0.032306 0.027450
vt 0.308637 0.028824
vt 0.144458 0.229848
vn -0.623150 0.686004 0.375609
vn -0.890498 -0.024838 0.454309
vn -0.739059 -0.019498 0.673359
vn -0.733742 0.608456 0.302331
vn -0.596514 0.700488 0.391776
vn -0.844250 -0.031287 0.535035
vn -0.588652 0.680643 0.436135
vn -0.813846 -0.030879 0.580259
vn -0.700259 0.611315 0.368690
vn -0.854194 -0.026325 0.519288
vn -0.754800 0.576559 0.312820
vn -0.959122 -0.016645 0.282503
vn -0.859578 0.503752 0.085784
vn -0.859578 0.503752 0.085784
vn -0.994816 -0.002296 0.101666
vn 0.995224 -0.005122 0.097480
vn 0.877892 0.471419 0.084079
vn 0.877892 0.471419 0.084079
vn 0.966377 -0.013742 0.256763
vn 0.734229 0.576059 0.359255
vn 0.766817 0.567325 0.300223
vn 0.957362 -0.022243 0.288035
vn 0.806357 0.563760 0.178785
vn 0.964195 -0.024693 0.264043
vn 0.738245 0.639318 0.215096
vn 0.979971 -0.023143 0.197793
vn 0.671600 0.690751 0.267987
vn 0.871741 -0.035118 0.488706
vn 0.532989 0.764234 0.363137
vn 0.768116 -0.033358 0.639442
vn 0.266177 0.846267 0.461500
vn 0.503786 -0.028877 0.863346
vn -0.377007 -0.051227 0.924793
vn -0.202915 0.843250 0.497749
vn -0.376993 -0.051909 0.924760
vn -0.882739 0.020212 -0.469428
vn -0.745167 -0.539231 -0.392372
vn -0.907892 -0.333459 -0.254043
vn -0.904292 0.022404 -0.426325
vn -0.981189 -0.150833 -0.120487
vn -0.986463 0.004800 -0.163911
vn -0.983798 -0.140085 -0.111883
vn -0.993711 0.003294 -0.111929
vn 0.410673 -0.068939 0.909173
vn 0.216655 0.847260 0.484987
vn 0.216655 0.847260 0.484987
vn 0.410723 -0.067007 0.909295
vn 0.898504 -0.033152 0.437712
vn 0.665815 0.671823 0.324568
vn 0.592123 0.718144 0.365594
vn 0.771905 -0.036797 0.634673
vn 0.447523 0.784640 0.429026
vn 0.731505 -0.033316 0.681021
vn 0.468247 0.779052 0.416920
vn 0.744480 -0.025093 0.667173
vn -0.509072 -0.016803 0.860560
vn -0.283967 0.832963 0.474905
vn -0.613294 -0.697871 0.369928
vn -0.586926 -0.711932 0.385579
vn -0.722010 -0.623563 0.299785
vn -0.578433 -0.693476 0.429541
vn -0.691613 -0.623704 0.364233
vn -0.823014 -0.541123 0.172726
vn -0.857571 -0.506485 0.089696
vn 0.874621 -0.476835 0.087561
vn 0.847224 -0.509178 0.151490
vn 0.756134 -0.583910 0.295483
vn 0.796174 -0.578464 0.177444
vn 0.728026 -0.651802 0.212445
vn 0.661372 -0.702280 0.263419
vn 0.524469 -0.773539 0.355767
vn 0.266241 -0.851852 0.451069
vn -0.198712 -0.850245 0.487438
vn -0.730867 0.558399 -0.392459
vn -0.904152 0.342985 -0.254697
vn -0.981703 0.149170 -0.118357
vn -0.984289 0.138220 -0.109860
vn 0.215703 -0.854478 0.472588
vn 0.215703 -0.854478 0.472588
vn 0.656141 -0.683693 0.319442
vn 0.583096 -0.728795 0.358966
vn 0.437837 -0.794407 0.420972
vn 0.454631 -0.790671 0.410061
vn -0.272122 -0.842406 0.465082
vn -0.000003 -0.482491 -0.875901
vn -0.000003 -0.482491 -0.875901
vn -0.000003 -0.482491 -0.875901
vn -0.000003 -0.482491 -0.875901
vn 0.000004 0.478467 -0.878105
vn 0.000004 0.478467 -0.878105
vn 0.000004 0.478467 -0.878105
vn 0.000004 0.478467 -0.878105
vn 0.004894 0.986462 0.163916
vn 0.004894 0.986462 0.163916
vn 0.004894 0.986462 0.163916
vn 0.004894 0.986462 0.163916
vn 0.000793 -0.999988 0.004864
vn 0.000793 -0.999988 0.004864
vn 0.000793 -0.999988 0.004864
vn 0.000793 -0.999988 0.004864
vn 0.004163 0.995017 0.099619
vn 0.004163 0.995017 0.099619
vn 0.004163 0.995017 0.099619
vn 0.004163 0.995017 0.099619
vn -0.024124 0.990602 0.134628
vn -0.024124 0.990602 0.134628
vn -0.024124 0.990602 0.134628
vn -0.024124 0.990602 0.134628
vn 0.000000 1.000000 0.000000
vn 0.000000 1.000000 0.000000
vn 0.000000 1.000000 0.000000
vn 0.000000 1.000000 0.000000
vn -0.000379 0.999999 0.001248
vn -0.000379 0.999999 0.001248
vn -0.000379 0.999999 0.001248
vn -0.000551 0.999996 0.002645
vn -0.000551 0.999996 0.002645
vn -0.000551 0.999996 0.002645
vn -0.000551 0.999996 0.002645
vn 0.000689 0.999992 0.003920
vn 0.000689 0.999992 0.003920
vn 0.000689 0.999992 0.003920
vn 0.000689 0.999992 0.003920
vn 0.000000 1.000000 -0.000000
vn 0.000000 1.000000 -0.000000
vn 0.000000 1.000000 -0.000000
vn 0.000000 1.000000 -0.000000
vn 0.000455 1.000000 -0.000391
vn 0.000455 1.000000 -0.000391
vn 0.000455 1.000000 -0.000391
vn 0.004637 0.999975 -0.005340
vn 0.004637 0.999975 -0.005340
vn 0.004637 0.999975 -0.005340
vn 0.000209 1.000000 0.000040
vn 0.000209 1.000000 0.000040
vn 0.000209 1.000000 0.000040
vn -0.004423 0.999983 -0.003850
vn -0.004423 0.999983 -0.003850
vn -0.004423 0.999983 -0.003850
vn -0.004423 0.999983 -0.003850
vn 0.006832 -0.986154 0.165690
vn 0.006832 -0.986154 0.165690
vn 0.006832 -0.986154 0.165690
vn 0.006832 -0.986154 0.165690
vn 0.005460 -0.994340 0.106105
vn 0.005460 -0.994340 0.106105
vn 0.005460 -0.994340 0.106105
vn 0.005460 -0.994340 0.106105
vn -0.024384 -0.990514 0.135230
vn -0.024384 -0.990514 0.135230
vn -0.024384 -0.990514 0.135230
vn -0.024384 -0.990514 0.135230
vn 0.000000 -1.000000 0.000000
vn 0.000000 -1.000000 0.000000
vn 0.000000 -1.000000 0.000000
vn 0.000000 -1.000000 0.000000
vn -0.005243 -0.999976 -0.004481
vn -0.005243 -0.999976 -0.004481
vn -0.005243 -0.999976 -0.004481
vn -0.005243 -0.999976 -0.004481
vn -0.000664 -0.999995 0.003168
vn -0.000664 -0.999995 0.003168
vn -0.000664 -0.999995 0.003168
vn -0.000664 -0.999995 0.003168
vn 0.005222 -0.999969 -0.005954
vn 0.005222 -0.999969 -0.005954
vn 0.005222 -0.999969 -0.005954
vn 0.000600 -1.000000 -0.000512
vn 0.000600 -1.000000 -0.000512
vn 0.000600 -1.000000 -0.000512
vn -0.000000 -1.000000 -0.000000
vn -0.000000 -1.000000 -0.000000
vn -0.000000 -1.000000 -0.000000
vn -0.000000 -1.000000 -0.000000
vn -0.000105 -0.999999 0.001086
vn -0.000105 -0.999999 0.001086
vn -0.000105 -0.999999 0.001086
vn 0.000295 -1.000000 0.000246
vn 0.000295 -1.000000 0.000246
vn 0.000295 -1.000000 0.000246
s 1
g polySurface23 polySurface22
usemtl initialShadingGroup
f 1/1/1 2/2/2 41/3/3 40/4/4
f 2/2/2 1/1/1 3/5/5 4/6/6
f 4/6/6 3/5/5 5/7/7 6/8/8
f 6/8/8 5/7/7 7/9/9 8/10/10
f 8/10/10 7/9/9 9/11/11 10/12/12
f 10/12/12 9/13/13 62/14/14 63/15/15
s 3
f 65/16/16 64/17/17 11/18/18 12/19/19
f 12/19/19 11/20/20 13/21/21 14/22/22
f 14/22/22 13/21/21 15/23/23 16/24/24
f 16/24/24 15/23/23 17/25/25 18/26/26
f 18/26/26 17/25/25 19/27/27 20/28/28
f 20/28/28 19/27/27 21/29/29 22/30/30
f 22/30/30 21/29/29 23/31/31 24/32/32
s 5
f 24/32/33 23/31/34 25/33/35
s 6
f 25/33/36 23/31/37 26/34/38 27/35/39
f 27/35/39 26/34/38 28/36/40 29/37/41
f 29/37/41 28/36/40 30/38/42 31/39/43
s 7
f 31/39/44 30/38/45 32/40/46 33/41/47
s 8
f 33/41/48 32/40/49 34/42/50 35/43/51
f 35/43/51 34/42/50 36/44/52 37/45/53
f 37/45/53 36/44/52 38/46/54 39/47/55
s 1
f 39/47/56 38/46/57 40/4/4 41/3/3
f 42/48/58 2/2/2 4/6/6 43/49/59
f 2/2/2 42/48/58 61/50/60 41/3/3
f 43/49/59 4/6/6 6/8/8 44/51/61
f 44/51/61 6/8/8 8/10/10 45/52/62
f 45/52/62 8/10/10 10/12/12 46/53/63
f 46/53/63 10/12/12 63/15/15 67/54/64
s 3
f 66/55/65 65/16/16 12/19/19 47/56/66
f 47/56/66 12/19/19 14/22/22 48/57/67
f 48/57/67 14/22/22 16/24/24 49/58/68
f 49/58/68 16/24/24 18/26/26 50/59/69
f 50/59/69 18/26/26 20/28/28 51/60/70
f 51/60/70 20/28/28 22/30/30 52/61/71
f 52/61/71 22/30/30 24/32/32 53/62/72
s 5
f 53/62/73 24/32/33 25/33/35
s 6
f 53/62/74 25/33/36 27/35/39 54/63/75
f 54/63/75 27/35/39 29/37/41 55/64/76
f 55/64/76 29/37/41 31/39/43 56/65/77
s 7
f 56/65/78 31/39/44 33/41/47 57/66/79
s 8
f 57/66/80 33/41/48 35/43/51 58/67/81
f 58/67/81 35/43/51 37/45/53 59/68/82
f 59/68/82 37/45/53 39/47/55 60/69/83
s 1
f 60/69/84 39/47/56 41/3/3 61/50/60
s off
f 63/15/85 65/16/86 66/55/87 67/54/88
f 63/15/89 62/14/90 64/17/91 65/16/92
f 9/70/93 11/71/94 64/17/95 62/14/96
f 61/50/97 42/48/98 59/68/99 60/69/100
f 7/9/101 13/21/102 11/71/103 9/70/104
f 5/7/105 15/23/106 13/21/107 7/9/108
f 3/5/109 17/25/110 15/23/111 5/7/112
f 21/29/113 26/34/114 23/31/115
f 3/5/116 30/38/117 19/27/118 17/25/119
f 36/44/120 1/1/121 40/4/122 38/46/123
f 3/5/124 1/1/125 36/44/126 34/42/127
f 3/5/128 34/42/129 32/40/130
f 3/5/131 32/40/132 30/38/133
f 21/29/134 28/36/135 26/34/136
f 19/27/137 30/38/138 28/36/139 21/29/140
f 47/56/141 46/53/142 67/54/143 66/55/144
f 48/57/145 45/52/146 46/53/147 47/56/148
f 49/58/149 44/51/150 45/52/151 48/57/152
f 50/59/153 43/49/154 44/51/155 49/58/156
f 56/65/157 51/60/158 52/61/159 55/64/160
f 56/65/161 43/49/162 50/59/163 51/60/164
f 57/66/165 43/49/166 56/65/167
f 58/67/168 43/49/169 57/66/170
f 59/68/171 42/48/172 43/49/173 58/67/174
f 54/63/175 52/61/176 53/62/177
f 55/64/178 52/61/179 54/63/180
