# This file uses meters as units for non-parametric coordinates.

mtllib FishMidBack.mtl
g default
v -5.791461 -0.439023 -0.177920
v -5.052586 0.736524 0.169260
v -5.049172 0.736524 0.094005
v -5.786836 -0.439043 -0.277366
v -4.895866 0.736524 -0.388061
v -5.606921 -0.439003 -0.842815
v -4.245103 0.736524 -2.811484
v -4.861556 -0.439013 -3.618655
v -3.676717 -0.439350 -7.777682
v -3.299918 0.343498 -6.772060
v 0.676121 -0.439331 -7.777680
v 0.430438 0.343498 -6.772060
v 0.543036 0.581808 -5.973385
v 0.844336 -0.438630 -7.216965
v 1.062352 0.736524 -5.113785
v 1.435487 -0.438996 -6.291685
v 1.889474 0.736524 -3.995974
v 2.386469 -0.438969 -5.006574
v 2.532306 0.736524 -2.732475
v 3.131834 -0.438948 -3.541548
v 2.888190 0.736524 -1.664824
v 3.543068 -0.438996 -2.307841
v 3.373185 0.736524 -0.049686
v 4.108517 -0.445039 -0.413786
v 4.137764 -0.441953 -0.178022
v 3.404239 0.736524 0.169260
v -5.042634 -1.649045 0.153788
v -5.039975 -1.649045 0.095215
v -4.886741 -1.649045 -0.386376
v -4.235833 -1.649045 -2.810429
v -3.258648 -1.251971 -6.771441
v 0.395982 -1.251971 -6.771441
v 0.529861 -1.532704 -5.937598
v 1.055257 -1.649045 -5.107831
v 1.882075 -1.649045 -3.990322
v 2.524314 -1.649045 -2.727556
v 2.879558 -1.649045 -1.661556
v 3.369746 -1.649045 0.009610
v 3.389811 -1.649041 0.153788
v -3.628511 0.703175 -0.840592
v 0.346199 0.703175 -4.274571
v 1.868426 0.703175 -0.840592
v 1.848241 0.703175 -0.982908
v 1.532994 0.703175 -2.032747
v 1.301670 0.703175 -2.726720
v 0.883828 0.703175 -3.547995
v 0.008643 0.602611 -4.833312
v -0.064545 0.447708 -5.352451
v -2.489277 0.447708 -5.352450
v -3.103647 0.703175 -2.778076
v -3.526643 0.703175 -1.202851
v -3.626292 0.703175 -0.889508
v 1.859517 -1.615920 -0.851217
v -0.086472 -1.357825 -5.352616
v -3.621572 -1.615923 -0.851217
v -3.619844 -1.615923 -0.889289
v -3.520242 -1.615923 -1.202323
v -3.097152 -1.615923 -2.777958
v -2.461981 -1.357825 -5.352616
v 0.000550 -1.540301 -4.810618
v 0.342057 -1.615923 -4.271269
v 0.879489 -1.615923 -3.544888
v 1.296944 -1.615923 -2.724090
v 1.527853 -1.615923 -2.031190
v 1.846475 -1.615923 -0.944932
vt 0.685145 0.177712
vt 0.685050 0.177647
vt 0.687808 0.179529
vt 0.688325 0.179881
vt 0.688708 0.180327
vt 0.703288 0.197272
vt 0.703288 0.197272
vt 0.779494 0.278056
vt 0.779543 0.278107
vt 0.779543 0.278107
vt 0.891608 0.400582
vt 0.892414 0.401463
vt 0.802953 0.544430
vt 0.805461 0.540359
vt 0.782862 0.534293
vt 0.782261 0.538909
vt 0.782261 0.538909
vt 0.739813 0.539602
vt 0.739813 0.539602
vt 0.678607 0.544808
vt 0.678223 0.544840
vt 0.677840 0.544809
vt 0.615225 0.539689
vt 0.614882 0.539661
vt 0.614547 0.539583
vt 0.565991 0.528190
vt 0.565931 0.528176
vt 0.565869 0.528159
vt 0.491450 0.507812
vt 0.491010 0.507691
vt 0.490672 0.507538
vt 0.482140 0.503670
vt 0.482852 0.503993
vt 0.682802 0.182195
vt 0.684850 0.183946
vt 0.699557 0.200636
vt 0.775884 0.281545
vt 0.890577 0.406853
vt 0.808134 0.540654
vt 0.804129 0.544745
vt 0.782879 0.533878
vt 0.739559 0.534585
vt 0.678175 0.539801
vt 0.615601 0.534676
vt 0.567123 0.523297
vt 0.492675 0.502941
vt 0.486769 0.500347
vt 0.889092 0.404630
vt 0.484100 0.499454
vt 0.698116 0.270778
vt 0.696726 0.269833
vt 0.597562 0.428836
vt 0.601869 0.430682
vt 0.570063 0.511721
vt 0.567110 0.510423
vt 0.665127 0.351347
vt 0.666150 0.352223
vt 0.682428 0.181447
vt 0.685209 0.183338
vt 0.492714 0.503145
vt 0.639029 0.440956
vt 0.567034 0.523693
vt 0.663312 0.446655
vt 0.615601 0.535092
vt 0.694620 0.449215
vt 0.678216 0.540212
vt 0.725321 0.446605
vt 0.739619 0.534991
vt 0.746943 0.446256
vt 0.758242 0.449289
vt 0.800058 0.381424
vt 0.776139 0.281221
vt 0.743581 0.319720
vt 0.699833 0.200329
vt 0.705428 0.279274
vt 0.673504 0.360568
vt 0.711668 0.401023
vt 0.769014 0.463677
vt 0.727793 0.530577
vt 0.715165 0.527189
vt 0.693505 0.527542
vt 0.662813 0.530150
vt 0.631526 0.527588
vt 0.607287 0.521899
vn -0.998465 0.030871 -0.045984
vn -0.840835 0.539902 -0.038751
vn -0.794808 0.567035 -0.216222
vn -0.961118 0.000179 -0.276138
vn -0.794227 0.565962 -0.221114
vn -0.964073 -0.003271 -0.265618
vn -0.784265 0.579882 -0.220600
vn -0.959950 -0.010857 -0.279961
vn -0.765437 0.601037 -0.229916
vn -0.956765 -0.027168 -0.289590
vn 0.942484 -0.047038 -0.330924
vn 0.783941 0.563315 -0.260984
vn 0.623334 0.658842 -0.421167
vn 0.889772 -0.023362 -0.455807
vn 0.610824 0.652291 -0.448788
vn 0.809664 -0.006809 -0.586854
vn 0.671870 0.625321 -0.396944
vn 0.840099 -0.003897 -0.542420
vn 0.746282 0.591172 -0.305905
vn 0.912850 -0.003589 -0.408280
vn 0.785689 0.568950 -0.242876
vn 0.953804 -0.006962 -0.300350
vn 0.795372 0.564761 -0.220063
vn 0.962082 -0.012735 -0.272463
vn 0.827798 0.549425 -0.113506
vn 0.989640 0.060974 -0.129978
vn -0.844903 -0.533505 -0.038881
vn -0.798264 -0.560561 -0.220331
vn -0.798661 -0.559206 -0.222324
vn -0.785848 -0.576971 -0.222590
vn -0.763326 -0.602652 -0.232687
vn 0.766556 -0.576989 -0.281915
vn 0.633018 -0.647872 -0.423734
vn 0.617480 -0.643862 -0.451841
vn 0.676709 -0.618077 -0.400057
vn 0.750901 -0.584178 -0.308032
vn 0.788325 -0.565140 -0.243227
vn 0.796801 -0.562483 -0.220727
vn 0.831804 -0.545330 -0.103522
vn 0.000002 -0.777980 -0.628290
vn 0.000002 -0.777980 -0.628289
vn 0.000002 -0.777980 -0.628289
vn 0.000002 -0.777980 -0.628289
vn -0.000002 0.789090 -0.614277
vn -0.000002 0.789090 -0.614277
vn -0.000002 0.789090 -0.614277
vn -0.000002 0.789090 -0.614277
vn -0.000040 -0.282955 0.959133
vn -0.000040 -0.282955 0.959133
vn -0.000040 -0.282955 0.959133
vn -0.000040 -0.282955 0.959133
vn 0.000048 0.264716 0.964326
vn 0.000048 0.264716 0.964326
vn 0.000048 0.264716 0.964326
vn 0.000048 0.264716 0.964326
vn 0.005306 0.999985 0.001608
vn 0.000246 0.999511 -0.031253
vn -0.000713 0.999530 -0.030644
vn -0.011442 0.999929 0.003350
vn -0.011694 -0.999926 0.003377
vn -0.000480 -0.999510 -0.031302
vn 0.000195 -0.999498 -0.031676
vn 0.005332 -0.999985 0.001636
vn 0.000425 0.999475 -0.032407
vn 0.027720 0.999596 0.006208
vn -0.001184 0.999512 -0.031206
vn -0.025874 0.999644 0.006557
vn -0.006113 0.999979 0.001954
vn -0.026843 0.999605 0.008268
vn -0.006689 0.999973 0.003001
vn -0.027036 0.999574 0.010953
vn -0.011532 0.999907 0.007227
vn -0.026092 0.999534 0.015836
vn -0.040768 0.998447 -0.037975
vn -0.087012 0.995603 -0.034690
vn -0.307370 0.937839 -0.161187
vn -0.134413 0.976757 -0.166968
vn -0.019173 0.996623 -0.079845
vn -0.054075 0.992804 -0.106848
vn 0.012086 0.996716 -0.080068
vn 0.012021 0.996214 -0.086098
vn 0.030548 0.998425 -0.047066
vn 0.014083 0.999234 -0.036522
vn 0.029370 0.999533 0.008444
vn 0.008680 0.999960 0.002356
vn -0.000798 -0.999496 -0.031724
vn -0.025983 -0.999639 0.006777
vn 0.000334 -0.999473 -0.032467
vn 0.027935 -0.999588 0.006667
vn 0.008561 -0.999961 0.002323
vn 0.029250 -0.999537 0.008412
vn 0.007883 -0.998897 -0.046279
vn 0.030392 -0.998415 -0.047361
vn -0.000584 -0.994810 -0.101751
vn 0.012110 -0.996628 -0.081156
vn -0.057938 -0.991232 -0.118750
vn -0.024549 -0.996274 -0.082677
vn -0.331443 -0.929474 -0.161936
vn -0.067074 -0.989106 -0.131036
vn -0.071810 -0.997181 -0.021739
vn -0.033524 -0.999079 -0.026769
vn -0.026010 -0.999537 0.015781
vn -0.011491 -0.999908 0.007201
vn -0.026944 -0.999577 0.010911
vn -0.006658 -0.999973 0.002987
vn -0.026702 -0.999611 0.008075
vn -0.006113 -0.999979 0.001933
vn 0.000000 -1.000000 0.000000
vn 0.000000 -1.000000 0.000000
vn -0.047412 -0.992889 -0.109193
vn 0.000000 1.000000 0.000000
vn 0.000000 1.000000 0.000000
vn -0.061128 0.988132 -0.140918
vn -0.143718 0.953672 -0.264299
s 1
g polySurface27 polySurface26 polySurface24 polySurface22
usemtl initialShadingGroup
f 1/1/1 2/2/2 3/3/3 4/4/4
f 4/4/4 3/5/3 5/6/5 6/7/6
f 6/7/6 5/6/5 7/8/7 8/9/8
f 8/9/8 7/10/7 10/11/9 9/12/10
s 2
f 11/13/11 12/14/12 13/15/13 14/16/14
f 14/16/14 13/17/13 15/18/15 16/19/16
f 16/19/16 15/18/15 17/20/17 18/21/18
f 18/21/18 17/22/17 19/23/19 20/24/20
f 20/24/20 19/25/19 21/26/21 22/27/22
f 22/27/22 21/28/21 23/29/23 24/30/24
f 24/30/24 23/31/23 26/32/25 25/33/26
s 1
f 27/34/27 1/1/1 4/4/4 28/35/28
f 28/35/28 4/4/4 6/7/6 29/36/29
f 29/36/29 6/7/6 8/9/8 30/37/30
f 30/37/30 8/9/8 9/12/10 31/38/31
s 2
f 32/39/32 11/40/11 14/16/14 33/41/33
f 33/41/33 14/16/14 16/19/16 34/42/34
f 34/42/34 16/19/16 18/21/18 35/43/35
f 35/43/35 18/21/18 20/24/20 36/44/36
f 36/44/36 20/24/20 22/27/22 37/45/37
f 37/45/37 22/27/22 24/30/24 38/46/38
f 38/46/38 24/30/24 25/33/26 39/47/39
s off
f 9/12/40 11/40/41 32/39/42 31/38/43
f 9/12/44 10/48/45 12/14/46 11/40/47
f 1/1/48 25/33/49 26/49/50 2/2/51
f 1/1/52 27/34/53 39/47/54 25/33/55
s 3
f 52/50/56 40/51/57 42/52/58 43/53/59
s 4
f 65/54/60 53/55/61 55/56/62 56/57/63
s 3
f 2/58/64 40/51/57 52/50/56 3/59/65
f 2/58/64 26/49/66 42/52/58 40/51/57
f 43/53/59 42/52/58 26/49/66 23/60/67
f 44/61/68 43/53/59 23/60/67 21/62/69
f 45/63/70 44/61/68 21/62/69 19/64/71
f 46/65/72 45/63/70 19/64/71 17/66/73
f 41/67/74 46/65/72 17/66/73 15/68/75
f 13/15/76 47/69/77 41/67/74 15/68/75
f 12/14/78 48/70/79 47/69/77 13/15/76
f 10/48/80 49/71/81 48/70/79 12/14/78
f 7/72/82 50/73/83 49/71/81 10/48/80
f 5/74/84 51/75/85 50/73/83 7/72/82
f 3/59/65 52/50/56 51/75/85 5/74/84
s 4
f 39/47/86 53/55/61 65/54/60 38/46/87
f 39/47/86 27/34/88 55/56/62 53/55/61
f 56/57/63 55/56/62 27/34/88 28/35/89
f 57/76/90 56/57/63 28/35/89 29/36/91
f 58/77/92 57/76/90 29/36/91 30/37/93
f 59/78/94 58/77/92 30/37/93 31/38/95
f 54/79/96 59/78/94 31/38/95 32/39/97
f 33/41/98 60/80/99 54/79/96 32/39/97
f 34/42/100 61/81/101 60/80/99 33/41/98
f 35/43/102 62/82/103 61/81/101 34/42/100
f 36/44/104 63/83/105 62/82/103 35/43/102
f 37/45/106 64/84/107 63/83/105 36/44/104
f 38/46/87 65/54/60 64/84/107 37/45/106
f 65/54/60 56/57/63 57/76/90 64/84/107
f 64/84/107 57/76/90 58/77/92 63/83/105
f 63/83/105 58/77/108 62/82/103
f 62/82/103 58/77/109 61/81/101
f 61/81/101 58/77/110 60/80/99
f 60/80/99 58/77/92 59/78/94 54/79/96
s 3
f 52/50/56 43/53/59 44/61/68 51/75/85
f 51/75/85 44/61/68 45/63/70 50/73/83
f 50/73/111 45/63/70 46/65/72
f 50/73/112 46/65/72 41/67/74
f 50/73/113 41/67/74 47/69/77
f 50/73/114 47/69/77 48/70/79
f 50/73/83 48/70/79 49/71/81
