# This file uses meters as units for non-parametric coordinates.

mtllib FishTail.mtl
g default
v -3.240603 -0.334605 -8.484677
v -4.331459 -0.334605 -10.198878
v -5.172976 -0.334605 -11.476737
v -5.484649 -0.334605 -12.193586
v -6.107995 -0.334605 -13.471445
v -6.076828 -0.334605 -14.032455
v -5.546984 -0.334605 -14.219460
v -4.611964 -0.334605 -14.219460
v -3.521109 -0.334605 -14.001289
v -2.212082 -0.334605 -13.689616
v -1.619904 -0.334605 -13.783117
v -0.684885 -0.334605 -14.032455
v 0.281301 -0.334605 -14.344130
v 1.122819 -0.334605 -14.437631
v 2.026670 -0.334605 -14.375297
v 2.089005 -0.334605 -13.533779
v 1.621495 -0.334605 -12.068917
v 1.185153 -0.334605 -10.759889
v 0.779978 -0.334605 -9.887205
v 0.250134 -0.334605 -9.108023
v -0.155041 -0.334605 -9.702640
v -1.464067 -0.334605 -9.949075
v -2.586090 -0.334605 -9.734306
v -3.240603 -0.568601 -8.484677
v -4.331459 -0.568601 -10.198878
v -5.172976 -0.568601 -11.476737
v -5.484649 -0.568601 -12.193586
v -6.107995 -0.568601 -13.471445
v -6.076828 -0.568601 -14.032455
v -5.546984 -0.568601 -14.219460
v -4.611964 -0.568601 -14.219460
v -3.521109 -0.568601 -14.001289
v -2.212082 -0.568601 -13.689616
v -1.619904 -0.568601 -13.783117
v -0.684885 -0.568601 -14.032455
v 0.281301 -0.568601 -14.344130
v 1.122819 -0.568601 -14.437631
v 2.026670 -0.568601 -14.375297
v 2.089005 -0.568601 -13.533779
v 1.621495 -0.568601 -12.068917
v 1.185153 -0.568601 -10.759889
v 0.779978 -0.568601 -9.887205
v 0.250134 -0.568601 -9.108023
v -0.155041 -0.568601 -9.702640
v -1.464067 -0.568601 -9.949075
v -2.586090 -0.568601 -9.734306
v -3.256045 0.281740 -7.128042
v -3.602148 -0.440460 -8.039436
v -3.342151 -0.035773 -10.584632
v -3.550743 -0.447459 -11.123702
v -2.599730 -0.035330 -11.005323
v -2.702570 -0.447503 -11.586341
v -1.877234 -0.035300 -11.150900
v -1.931504 -0.447476 -11.740554
v -1.133914 -0.035330 -11.221806
v -1.134735 -0.447486 -11.817662
v -0.088731 -0.035383 -10.935026
v -0.003837 -0.447486 -11.509234
v 0.204088 -0.035522 -10.658290
v 0.355994 -0.447476 -11.175106
v 0.335701 0.175544 -7.510851
v 0.535909 -0.442631 -8.245053
v -3.221545 -1.215772 -7.028404
v -3.322867 -0.877971 -10.530882
v -2.589791 -0.878523 -10.949086
v -1.871048 -0.878557 -11.093797
v -1.133670 -0.878523 -11.164082
v -0.096330 -0.878456 -10.879102
v 0.190605 -0.878284 -10.607042
v 0.311893 -1.123040 -7.385795
v -3.676717 -0.439350 -7.777682
v -3.299918 0.343498 -6.772060
v 0.430438 0.343498 -6.772060
v 0.676121 -0.439331 -7.777680
v -3.258648 -1.251971 -6.771441
v 0.395982 -1.251971 -6.771441
v -2.666234 0.271417 -7.482445
v -1.258331 0.025178 -10.374781
v -0.241503 0.271417 -7.482446
v -0.303081 0.162246 -7.962660
v -0.388630 0.025053 -10.008495
v -0.578963 0.025144 -10.188375
v -1.741490 0.025197 -10.328691
v -2.211112 0.025178 -10.234067
v -2.693686 0.024890 -9.960618
v -2.637717 0.231273 -7.713834
v -0.263220 -1.182508 -7.474728
v -1.736790 -0.939788 -10.284259
v -2.638729 -1.182508 -7.474728
v -2.614613 -1.158978 -7.641754
v -2.680472 -0.939408 -9.918365
v -2.203973 -0.939766 -10.190197
v -1.257494 -0.939766 -10.329945
v -0.583223 -0.939723 -10.144708
v -0.396715 -0.939611 -9.967869
v -0.317878 -1.098702 -7.874058
v -1.894444 -0.334605 -11.962642
v -1.894444 -0.568601 -11.962645
vt 0.176692 0.003133
vt 0.442982 0.003133
vt 0.643484 0.000000
vt 0.744674 0.015978
vt 0.929825 0.036968
vt 0.989662 0.079887
vt 0.973058 0.151629
vt 0.907268 0.255013
vt 0.806391 0.360276
vt 0.679825 0.483083
vt 0.648496 0.555138
vt 0.610276 0.676065
vt 0.576754 0.804825
vt 0.527882 0.904449
vt 0.457393 1.000000
vt 0.359962 0.947682
vt 0.230890 0.792920
vt 0.116855 0.652569
vt 0.048872 0.546366
vt 0.000000 0.432957
vt 0.176692 0.482456
vt 0.220551 0.307018
vt 0.271930 0.165414
vt 0.176692 0.003133
vt 0.271930 0.165414
vt 0.220551 0.307018
vt 0.176692 0.482456
vt 0.000000 0.432957
vt 0.048872 0.546366
vt 0.116855 0.652569
vt 0.230890 0.792920
vt 0.359962 0.947682
vt 0.457393 1.000000
vt 0.527882 0.904449
vt 0.576754 0.804825
vt 0.610276 0.676065
vt 0.648496 0.555138
vt 0.679825 0.483083
vt 0.806391 0.360276
vt 0.907268 0.255013
vt 0.973058 0.151629
vt 0.989662 0.079887
vt 0.929825 0.036968
vt 0.744674 0.015978
vt 0.643484 0.000000
vt 0.442982 0.003133
vt 0.176692 0.003133
vt 0.442982 0.003133
vt 0.643484 0.000000
vt 0.744674 0.015978
vt 0.929825 0.036968
vt 0.989662 0.079887
vt 0.973058 0.151629
vt 0.907268 0.255013
vt 0.806391 0.360276
vt 0.679825 0.483083
vt 0.648496 0.555138
vt 0.610276 0.676065
vt 0.576754 0.804825
vt 0.527882 0.904449
vt 0.457393 1.000000
vt 0.359962 0.947682
vt 0.230890 0.792920
vt 0.116855 0.652569
vt 0.048872 0.546366
vt 0.000000 0.432957
vt 0.176692 0.482456
vt 0.220551 0.307018
vt 0.271930 0.165414
vt 0.892414 0.401463
vt 0.892478 0.401532
vt 0.899518 0.409226
vt 0.899518 0.409226
vt 0.997737 0.472027
vt 1.000000 0.473474
vt 0.999858 0.476157
vt 0.998064 0.510065
vt 0.998026 0.510776
vt 0.997786 0.511425
vt 0.987544 0.539067
vt 0.987463 0.539285
vt 0.987361 0.539495
vt 0.974213 0.566317
vt 0.973841 0.567077
vt 0.973224 0.567654
vt 0.941580 0.597272
vt 0.940752 0.598047
vt 0.939659 0.598349
vt 0.924233 0.602622
vt 0.922455 0.603114
vt 0.920828 0.602244
vt 0.822358 0.549609
vt 0.822358 0.549609
vt 0.804280 0.544785
vt 0.804129 0.544745
vt 0.890577 0.406853
vt 0.896259 0.413100
vt 0.994832 0.476129
vt 0.993053 0.509749
vt 0.982827 0.537340
vt 0.969738 0.564040
vt 0.938222 0.593538
vt 0.923050 0.597740
vt 0.824213 0.544908
vt 0.808134 0.540654
vt 0.805461 0.540359
vt 0.913053 0.448622
vt 0.909337 0.444544
vt 0.867521 0.512409
vt 0.876822 0.514874
vt 0.859846 0.541952
vt 0.851807 0.539825
vt 0.893028 0.472925
vt 0.895870 0.476048
vt 0.889092 0.404630
vt 0.896524 0.412786
vt 0.824062 0.545290
vt 0.926292 0.541317
vt 0.923002 0.598177
vt 0.934005 0.539181
vt 0.938428 0.593904
vt 0.949827 0.524373
vt 0.970072 0.564287
vt 0.983219 0.537464
vt 0.956401 0.510961
vt 0.993459 0.509822
vt 0.961521 0.497140
vt 0.995252 0.475913
vt 0.962417 0.480186
vt 0.945156 0.507563
vt 0.944267 0.524373
vt 0.939153 0.538169
vt 0.932609 0.551519
vt 0.916851 0.566267
vt 0.909265 0.568368
vt 0.376723 0.403979
vt 0.393484 0.339599
vn -0.055390 -0.967399 -0.247126
vn -0.000000 -1.000000 0.000000
vn -0.076501 -0.962775 -0.259252
vn -0.076500 0.962775 -0.259251
vn -0.000000 1.000000 0.000000
vn -0.055390 0.967399 -0.247125
vn -0.057601 0.974604 0.216402
vn -0.128103 0.988304 0.082733
vn -0.128103 -0.988304 0.082733
vn -0.057601 -0.974604 0.216402
vn -0.147305 0.985418 0.085161
vn -0.147305 -0.985418 0.085161
vn -0.120846 0.991054 0.056646
vn -0.120846 -0.991054 0.056646
vn -0.168049 0.984292 0.054117
vn -0.168049 -0.984292 0.054117
vn -0.125884 0.987542 -0.094413
vn -0.125884 -0.987542 -0.094413
vn -0.024989 0.980336 -0.195748
vn -0.024989 -0.980336 -0.195748
vn 0.025560 0.971089 -0.237347
vn 0.025560 -0.971089 -0.237347
vn 0.062180 0.957504 -0.281639
vn 0.062180 -0.957504 -0.281639
vn 0.026356 0.972911 -0.229671
vn 0.026356 -0.972911 -0.229671
vn -0.053509 0.969702 -0.238360
vn -0.053509 -0.969702 -0.238360
vn -0.003300 0.982771 -0.184797
vn -0.003300 -0.982771 -0.184797
vn 0.123847 0.983430 -0.132389
vn 0.123847 -0.983430 -0.132389
vn 0.152543 0.987933 0.026798
vn 0.152543 -0.987933 0.026798
vn 0.132028 0.990312 0.043020
vn 0.132028 -0.990312 0.043020
vn 0.135449 0.989406 0.052244
vn 0.135449 -0.989406 0.052244
vn 0.126828 0.989323 0.071790
vn 0.126828 -0.989323 0.071790
vn 0.033847 0.984607 0.171472
vn 0.033847 -0.984607 0.171472
vn -0.303337 0.725087 0.618252
vn -0.303337 -0.725089 0.618250
vn -0.002644 0.979178 0.202987
vn -0.002644 -0.979178 0.202986
vn 0.232941 0.930527 0.282592
vn 0.232940 -0.930527 0.282592
vn -0.111087 -0.015316 0.993693
vn -0.017427 -0.698225 0.715666
vn -0.491518 0.863674 -0.111700
vn -0.999298 -0.023556 -0.029149
vn -0.666528 0.738000 -0.105340
vn -0.936877 -0.037907 -0.347598
vn -0.136472 0.929970 -0.341368
vn -0.343469 -0.063407 -0.937021
vn -0.051857 0.936054 -0.348015
vn -0.144222 -0.065226 -0.987393
vn 0.046641 0.929962 -0.364686
vn 0.110451 -0.063946 -0.991822
vn 0.159966 0.925621 -0.342981
vn 0.355938 -0.061607 -0.932477
vn 0.738592 0.667109 -0.097194
vn 0.970176 -0.027991 -0.240779
vn 0.522590 0.837701 -0.158605
vn 0.996355 -0.024042 -0.081841
vn 0.030448 -0.688728 0.724381
vn 0.189414 -0.016747 0.981754
vn -0.016633 0.688605 0.724946
vn -0.506928 -0.855741 -0.103596
vn -0.673115 -0.732437 -0.102233
vn -0.137198 -0.929565 -0.342179
vn -0.052048 -0.935523 -0.349411
vn 0.046824 -0.929720 -0.365278
vn 0.160762 -0.925075 -0.344080
vn 0.747482 -0.657185 -0.096844
vn 0.536729 -0.829571 -0.154056
vn 0.029963 0.679498 0.733066
vn 0.003385 0.995051 -0.099311
vn -0.005025 0.992066 -0.125622
vn 0.019356 0.990441 -0.136575
vn 0.016970 0.995482 -0.093422
vn 0.013263 -0.995452 -0.094339
vn 0.015491 -0.992026 -0.125081
vn -0.002089 -0.993421 -0.114499
vn 0.003258 -0.995049 -0.099332
vn 0.016130 0.997193 -0.073120
vn 0.016780 0.999051 -0.040184
vn 0.006814 0.998231 -0.059070
vn -0.008283 0.998380 -0.056292
vn -0.015402 0.999072 -0.040233
vn 0.001019 0.996736 -0.080727
vn 0.000357 -0.996284 -0.086131
vn -0.015871 -0.999026 -0.041184
vn -0.008492 -0.998296 -0.057740
vn 0.007007 -0.998138 -0.060596
vn 0.017188 -0.999005 -0.041144
vn 0.012955 -0.996719 -0.079899
vn -0.000000 -1.000000 -0.000001
vn -0.000000 1.000000 -0.000001
s 1
g polySurface43
usemtl initialShadingGroup
f 36/13/1 98/137/2 35/12/3
f 12/36/4 97/136/5 13/35/6
f 1/47/7 2/48/8 25/2/9 24/1/10
f 2/48/8 3/49/11 26/3/12 25/2/9
f 3/49/11 4/50/13 27/4/14 26/3/12
f 4/50/13 5/51/15 28/5/16 27/4/14
f 5/51/15 6/52/17 29/6/18 28/5/16
f 6/52/17 7/53/19 30/7/20 29/6/18
f 7/53/19 8/54/21 31/8/22 30/7/20
f 8/54/21 9/55/23 32/9/24 31/8/22
f 9/55/23 10/56/25 33/10/26 32/9/24
f 10/56/25 11/57/27 34/11/28 33/10/26
f 11/57/27 12/58/4 35/12/3 34/11/28
f 12/58/4 13/59/6 36/13/1 35/12/3
f 13/59/6 14/60/29 37/14/30 36/13/1
f 14/60/29 15/61/31 38/15/32 37/14/30
f 15/61/31 16/62/33 39/16/34 38/15/32
f 16/62/33 17/63/35 40/17/36 39/16/34
f 17/63/35 18/64/37 41/18/38 40/17/36
f 18/64/37 19/65/39 42/19/40 41/18/38
f 19/65/39 20/66/41 43/20/42 42/19/40
f 20/66/41 21/67/43 44/21/44 43/20/42
f 21/67/43 22/68/45 45/22/46 44/21/44
f 22/68/45 23/69/47 46/23/48 45/22/46
f 23/69/47 1/47/7 24/1/10 46/23/48
s 4
f 71/70/49 72/71/50 47/72/51 48/73/52
f 48/73/52 47/72/51 49/74/53 50/75/54
f 50/75/54 49/76/53 51/77/55 52/78/56
f 52/78/56 51/79/55 53/80/57 54/81/58
f 54/81/58 53/82/57 55/83/59 56/84/60
f 56/84/60 55/85/59 57/86/61 58/87/62
f 58/87/62 57/88/61 59/89/63 60/90/64
f 60/90/64 59/91/63 61/92/65 62/93/66
f 62/93/66 61/92/65 73/94/67 74/95/68
f 75/96/69 71/70/49 48/73/52 63/97/70
f 63/97/70 48/73/52 50/75/54 64/98/71
f 64/98/71 50/75/54 52/78/56 65/99/72
f 65/99/72 52/78/56 54/81/58 66/100/73
f 66/100/73 54/81/58 56/84/60 67/101/74
f 67/101/74 56/84/60 58/87/62 68/102/75
f 68/102/75 58/87/62 60/90/64 69/103/76
f 69/103/76 60/90/64 62/93/66 70/104/77
f 70/104/77 62/93/66 74/95/68 76/105/78
f 71/70/49 74/95/68 73/106/67 72/71/50
f 71/70/49 75/96/69 76/105/78 74/95/68
f 86/107/79 77/108/80 79/109/81 80/110/82
f 96/111/83 87/112/84 89/113/85 90/114/86
f 72/115/50 77/108/80 86/107/79 47/116/51
f 72/115/50 73/106/67 79/109/81 77/108/80
f 80/110/82 79/109/81 73/106/67 61/117/65
f 81/118/87 80/110/82 61/117/65 59/119/63
f 82/120/88 81/118/87 59/119/63 57/121/61
f 78/122/89 82/120/88 57/121/61 55/123/59
f 53/124/57 83/125/90 78/122/89 55/123/59
f 51/126/55 84/127/91 83/125/90 53/124/57
f 49/128/53 85/129/92 84/127/91 51/126/55
f 47/116/51 86/107/79 85/129/92 49/128/53
f 76/105/78 87/112/84 96/111/83 70/104/77
f 76/105/78 75/96/69 89/113/85 87/112/84
f 90/114/86 89/113/85 75/96/69 63/97/70
f 91/130/93 90/114/86 63/97/70 64/98/71
f 92/131/94 91/130/93 64/98/71 65/99/72
f 88/132/95 92/131/94 65/99/72 66/100/73
f 67/101/74 93/133/96 88/132/95 66/100/73
f 68/102/75 94/134/97 93/133/96 67/101/74
f 69/103/76 95/135/98 94/134/97 68/102/75
f 70/104/77 96/111/83 95/135/98 69/103/76
f 96/111/83 90/114/86 91/130/93 95/135/98
f 95/135/98 91/130/93 92/131/94 94/134/97
f 94/134/97 92/131/94 88/132/95 93/133/96
f 86/107/79 80/110/82 81/118/87 85/129/92
f 85/129/92 81/118/87 82/120/88 84/127/91
f 84/127/91 82/120/88 78/122/89 83/125/90
s 1
f 1/24/7 23/25/47 97/136/5
f 97/136/5 23/25/47 22/26/45
f 97/136/5 22/26/45 21/27/43
f 97/136/99 21/27/43 20/28/41
f 97/136/5 20/28/41 19/29/39
f 97/136/5 19/29/39 18/30/37
f 97/136/5 18/30/37 17/31/35
f 97/136/5 17/31/35 16/32/33
f 97/136/5 16/32/33 15/33/31
f 97/136/5 15/33/31 14/34/29
f 97/136/5 14/34/29 13/35/6
f 11/37/27 97/136/5 12/36/4
f 10/38/25 97/136/5 11/37/27
f 9/39/23 97/136/5 10/38/25
f 8/40/21 97/136/5 9/39/23
f 7/41/19 97/136/5 8/40/21
f 6/42/17 97/136/5 7/41/19
f 5/43/15 97/136/5 6/42/17
f 4/44/13 97/136/5 5/43/15
f 3/45/11 97/136/5 4/44/13
f 2/46/8 97/136/5 3/45/11
f 1/24/7 97/136/5 2/46/8
f 24/1/10 25/2/9 98/137/2
f 98/137/2 25/2/9 26/3/12
f 98/137/2 26/3/12 27/4/14
f 98/137/2 27/4/14 28/5/16
f 98/137/2 28/5/16 29/6/18
f 98/137/2 29/6/18 30/7/20
f 98/137/2 30/7/20 31/8/22
f 98/137/2 31/8/22 32/9/24
f 98/137/2 32/9/24 33/10/26
f 98/137/2 33/10/26 34/11/28
f 98/137/2 34/11/28 35/12/3
f 37/14/30 98/137/2 36/13/1
f 38/15/32 98/137/2 37/14/30
f 39/16/34 98/137/2 38/15/32
f 40/17/36 98/137/2 39/16/34
f 41/18/38 98/137/2 40/17/36
f 42/19/40 98/137/2 41/18/38
f 43/20/42 98/137/2 42/19/40
f 44/21/44 98/137/100 43/20/42
f 45/22/46 98/137/2 44/21/44
f 46/23/48 98/137/2 45/22/46
f 24/1/10 98/137/2 46/23/48
